<?xml version="1.0" standalone="no"?>
<!DOCTYPE svg PUBLIC "-//W3C//DTD SVG 20010904//EN"
 "http://www.w3.org/TR/2001/REC-SVG-20010904/DTD/svg10.dtd">
<svg version="1.0" xmlns="http://www.w3.org/2000/svg"
 width="700.000000pt" height="700.000000pt" viewBox="0 0 700.000000 700.000000"
 preserveAspectRatio="xMidYMid meet">
<metadata>
Created by potrace 1.14, written by Peter Selinger 2001-2017
</metadata>
<g transform="translate(0.000000,700.000000) scale(0.100000,-0.100000)"
fill="#000000" stroke="none">
<path d="M1150 6922 l0 -77 -277 0 -278 -1 -5 -279 -5 -280 -70 0 c-38 1 -74
-2 -80 -6 -9 -7 -11 -891 -6 -2551 l1 -358 75 0 75 0 2 -297 3 -298 111 2 110
1 -1 -1377 c0 -757 1 -1382 3 -1388 3 -10 512 -13 2501 -13 l2497 0 81 88 c45
48 109 116 143 152 34 36 126 132 203 215 78 82 181 190 229 240 l88 90 0 998
c0 791 3 997 13 997 9 0 12 357 12 1750 l0 1749 -22 6 -23 5 0 353 0 353 -129
2 c-114 1 -129 -1 -133 -16 -2 -9 -3 -171 -3 -359 1 -188 -1 -340 -3 -338 -3
2 -13 0 -23 -5 -10 -6 -20 -6 -23 -2 -3 5 -28 8 -56 7 -35 -1 -54 3 -57 12 -3
7 -6 133 -7 280 l-1 268 -280 1 c-154 1 -284 2 -288 3 -4 0 -7 27 -6 59 1 31
1 65 0 75 -1 16 -112 17 -2186 17 l-2185 0 0 -78z"/>
</g>
</svg>
