<svg width="726" height="423" viewBox="0 0 726 423" fill="none" xmlns="http://www.w3.org/2000/svg">
<g clip-path="url(#clip0_2_2490)">
<path d="M726 206.593L678.599 304.001L183.956 304.001L241.918 206.593L726 206.593Z" fill="#BCBEC0"/>
<path d="M726 206.593L668.283 109.185L163.571 109.185L241.918 206.593L726 206.593Z" fill="#A7A9AC"/>
<path d="M-9.45946e-06 206.593L327.633 206.593C290.793 278.729 253.707 350.864 216.867 423C144.414 350.864 72.207 278.729 -9.45946e-06 206.593Z" fill="#4372B8"/>
<path d="M0 206.593L327.633 206.593C285.881 137.647 244.374 69.1914 202.622 0.245398C135.081 68.9461 67.295 137.647 0 206.593Z" fill="#204672"/>
</g>
<defs>
<clipPath id="clip0_2_2490">
<rect width="423" height="726" fill="white" transform="translate(0 423) rotate(-90)"/>
</clipPath>
</defs>
</svg>
