<svg width="70" height="70" viewBox="0 0 70 70" fill="none" xmlns="http://www.w3.org/2000/svg">
<g id="Layer_1" clip-path="url(#clip0_36_3653)">
<path id="Vector_1352" d="M65.4892 59.4569H18.0395L8.05957 69.9461C24.7228 69.9461 41.3681 69.982 58.0313 69.9999C60.5533 66.4856 62.9672 62.9713 65.4892 59.4748V59.4569Z" fill="#393839"/>
<path id="Vector_1447" d="M65.5072 62.1107L58.0312 70V20.2613L65.5072 12.3899V62.1107Z" fill="#8E7168"/>
<path id="Vector_1448" d="M58.0313 20.2612H8.05957V70H58.0313V20.2612Z" fill="#D4AA9B"/>
<path id="Vector_1449" d="M12.9775 28.9933L28.65 29.4057L28.4338 41.2756H13.0136L12.9775 28.9933Z" fill="white"/>
<path id="Vector_1450" d="M17.0664 30.1409L25.8934 30.2664V37.5461H17.0844V30.1409H17.0664Z" fill="#3D2823"/>
<path id="Vector_1451" d="M22.5967 31.1271L25.1727 31.1629V33.2787H22.6147V31.1271H22.5967Z" fill="white"/>
<path id="Vector_1452" d="M21.9307 34.0138H23.4259V35.2689H21.9307V34.0138Z" fill="white"/>
<path id="Vector_1453" d="M52.3749 28.9933L36.6845 29.4057L36.6484 41.688H52.0687L52.3749 28.9933Z" fill="white"/>
<path id="Vector_1454" d="M49.0243 30.5354L40.1973 30.6609V37.9586L49.0063 37.9227V30.5354H49.0243Z" fill="#3D2823"/>
<path id="Vector_1455" d="M48.1772 31.163L45.6191 31.1988V33.3325H48.1772V31.163Z" fill="white"/>
<path id="Vector_1456" d="M46.4844 34.1394H44.9893V35.3945H46.4844V34.1394Z" fill="white"/>
<path id="Vector_1457" d="M49.4743 27.7203L48.6817 28.1506L39.2422 27.29L40.0168 26.8776L49.4743 27.7203Z" fill="#211614"/>
<path id="Vector_1458" d="M40.0168 26.8776L39.2422 27.29L39.2962 25.1563L40.0889 24.726L40.0168 26.8776Z" fill="#211614"/>
<path id="Vector_1459" d="M40.0887 24.726L49.5282 25.5866L49.4741 27.7203L40.0166 26.8776L40.0887 24.726Z" fill="#3B2722"/>
<path id="Vector_1460" d="M26.6506 26.9851L25.858 27.4154L16.4365 27.7023L17.2292 27.272L26.6506 26.9851Z" fill="#211614"/>
<path id="Vector_1461" d="M17.2287 27.2721L16.4361 27.7024L16.292 25.9273L17.0846 25.4969L17.2287 27.2721Z" fill="#211614"/>
<path id="Vector_1462" d="M26.5065 25.228L26.6506 26.9852L17.2291 27.2721L17.085 25.497L26.5065 25.228Z" fill="#3B2722"/>
<path id="Vector_1463" d="M44.07 62.1644H24.2002C20.3631 62.1644 21.2459 59.0624 21.2459 55.2433H46.61C46.61 59.0624 47.9071 62.1644 44.052 62.1644H44.07Z" fill="#89635E"/>
<path id="Vector_1464" d="M5.89746 21.2117V10.0948H60.2827V23.1481" fill="#D4AA9B"/>
<path id="Vector_1465" d="M40.3589 15.1511H26.5059V22.126H40.3589V15.1511Z" fill="white"/>
<path id="Vector_1466" d="M62.2289 20.9606V7.1542H55.2213V0H11.5005V7.1542H4.25879V29.1547H4.31283V36.3089H12.9237V29.1547H19.2647V21.9826H26.4524V15.8504H40.0352V21.9826H47.223V29.1547H53.564V36.3089H62.1748V29.1547H62.2289V20.9606Z" fill="#AE2525"/>
<path id="Vector_1467" d="M11.8067 1.55994H5.91602V7.42315H11.8067V1.55994Z" fill="#92221F"/>
<path id="Vector_1468" d="M60.9854 1.55994H55.0947V7.42315H60.9854V1.55994Z" fill="#92221F"/>
<path id="Vector_1469" d="M60.7517 35.2689H53.582V42.2259H60.7517V35.2689Z" fill="#92221F"/>
<path id="Vector_1470" d="M12.9597 35.2689H5.79004V42.2259H12.9597V35.2689Z" fill="#92221F"/>
<path id="Vector_1471" d="M62.3184 21.2117V10.0948H65.5069V23.1481" fill="#D4AA9B"/>
<path id="Vector_1472" d="M65.7413 20.9606V7.15421H65.309V0.0179443H62.6609V7.15421H62.2285V36.3089H65.7413V20.9606Z" fill="#8F1A1C"/>
<path id="Vector_1473" d="M65.7418 35.2689H65.1113V42.2259H65.7418V35.2689Z" fill="#600E0F"/>
<path id="Vector_1474" d="M65.1114 35.2689H60.752V42.2259H65.1114V35.2689Z" fill="#600E0F"/>
</g>
<defs>
<clipPath id="clip0_36_3653">
<rect width="70" height="70" fill="white"/>
</clipPath>
</defs>
</svg>
