<svg width="328" height="327" viewBox="0 0 328 327" fill="none" xmlns="http://www.w3.org/2000/svg">
<g id="Frame 10">
<g id="Group 1">
<path id="Vector" d="M234.58 326.81H93.8003C42.5103 326.81 0.780273 285.09 0.780273 233.79V93.02C0.780273 41.73 42.5103 0 93.8003 0H234.58C285.87 0 327.6 41.73 327.6 93.02V233.8C327.6 285.09 285.87 326.82 234.58 326.82V326.81ZM93.8003 28.01C57.9603 28.01 28.8003 57.17 28.8003 93.01V233.79C28.8003 269.63 57.9603 298.79 93.8003 298.79H234.58C270.42 298.79 299.58 269.63 299.58 233.79V93.02C299.58 57.18 270.42 28.02 234.58 28.02H93.8003V28.01Z" fill="black"/>
<path id="Vector_2" d="M164.191 247.09C118.051 247.09 80.5107 209.55 80.5107 163.41C80.5107 117.27 118.051 79.73 164.191 79.73C210.331 79.73 247.871 117.27 247.871 163.41C247.871 209.55 210.331 247.09 164.191 247.09ZM164.191 107.75C133.501 107.75 108.521 132.72 108.521 163.42C108.521 194.12 133.491 219.09 164.191 219.09C194.891 219.09 219.861 194.12 219.861 163.42C219.861 132.72 194.891 107.75 164.191 107.75Z" fill="black"/>
<path id="Vector_3" d="M271.571 74.9401C271.571 86.0501 262.571 95.0501 251.461 95.0501C240.351 95.0501 231.351 86.0501 231.351 74.9401C231.351 63.8301 240.351 54.8301 251.461 54.8301C262.571 54.8301 271.571 63.8301 271.571 74.9401Z" fill="black"/>
</g>
</g>
</svg>
