<svg width="435" height="327" viewBox="0 0 435 327" fill="none" xmlns="http://www.w3.org/2000/svg">
<g id="Frame 9">
<g id="Group 2">
<path id="Vector" d="M400 0H34.71C15.57 0 0 15.57 0 34.71V292.1C0 311.24 15.57 326.81 34.71 326.81H400C419.14 326.81 434.71 311.24 434.71 292.1V34.71C434.71 15.57 419.14 0 400 0ZM233.53 186.46C229.83 190.19 224.18 192.33 218.02 192.33C211.86 192.33 206.12 190.15 202.37 186.36L44.11 26H392.95L233.53 186.46ZM142.64 162.85L25.99 282.1V44.66L142.64 162.86V162.85ZM160.91 181.36L183.89 204.65C192.52 213.34 204.96 218.33 218.02 218.33C231.06 218.33 243.44 213.39 251.98 204.78L274.62 181.99L390.66 300.81H44.07L160.91 181.36ZM292.95 163.54L408.71 47.02V282.07L292.95 163.54Z" fill="black"/>
</g>
</g>
</svg>
