<svg width="557" height="368" viewBox="0 0 557 368" fill="none" xmlns="http://www.w3.org/2000/svg">
<g id="Layer_1" clip-path="url(#clip0_1_28)">
<path id="Vector" d="M221.558 277.002L231.157 318.771L236.117 304.036C236.101 301.649 236.085 299.263 236.069 296.876C235.358 284.833 231.929 274.698 228.306 266.914C225.999 270.194 223.692 273.475 221.558 277.002Z" fill="#DBDADA"/>
<path id="Vector_2" d="M283.872 278.797C140.346 281.655 22.935 235.553 21.6914 175.742C21.565 173.986 21.6489 172.267 21.9798 170.374C29.7362 227.641 144.398 270.878 283.781 268.162C423.164 265.446 536.026 217.352 541.501 160.016C541.838 161.808 541.964 163.564 541.881 165.283C542.914 225.058 427.398 275.938 283.872 278.797Z" fill="#E3E4E4"/>
<path id="Vector_3" d="M283.571 268.125C144.187 270.841 29.5258 227.604 21.7694 170.338C21.4327 168.545 21.3063 166.789 21.3902 165.07C20.1467 105.259 135.663 54.3784 279.188 51.5201C422.714 48.6617 540.125 94.7634 541.369 154.575C541.495 156.331 541.412 158.05 541.117 159.732C535.779 217.526 422.954 265.41 283.571 268.125Z" fill="#F6F7F7"/>
<path id="Vector_4" d="M228.306 266.913C228.306 266.913 236.122 299.052 236.117 304.036L231.157 318.771C231.157 318.771 270.472 313.294 306.212 267.534C291.325 268.398 278.724 268.578 269.178 268.643C259.668 268.497 251.457 268.361 247.809 268.157C240.339 267.501 233.673 267.202 228.306 266.913Z" fill="#F6F7F7"/>
<g id="Group">
<g id="Hey, I&#39;m Jaideep, a graphic designer born and brought up in Delhi, India. Click to see more or follow the path to see my work.">
<path d="M132.384 105.967L131.817 88.5219L133.929 88.4533L134.182 96.2219L143.484 95.9196L143.231 88.1509L145.344 88.0823L145.911 105.528L143.798 105.596L143.544 97.7936L134.243 98.0959L134.496 105.899L132.384 105.967ZM155.362 105.493C154.101 105.534 153.005 105.291 152.072 104.765C151.145 104.232 150.419 103.471 149.892 102.482C149.371 101.487 149.088 100.319 149.045 98.9792C149.001 97.639 149.207 96.4498 149.662 95.4118C150.123 94.3678 150.784 93.5448 151.645 92.9426C152.512 92.3346 153.537 92.0114 154.718 91.973C155.399 91.9508 156.076 92.0425 156.748 92.2481C157.42 92.4537 158.036 92.8031 158.598 93.2965C159.16 93.7842 159.616 94.4402 159.967 95.2644C160.318 96.0887 160.513 97.1113 160.552 98.3323L160.58 99.1841L150.495 99.5119L150.438 97.7742L158.479 97.5128C158.455 96.7746 158.286 96.1206 157.972 95.551C157.664 94.9812 157.234 94.5375 156.684 94.22C156.139 93.9023 155.503 93.7552 154.777 93.7789C153.976 93.8049 153.289 94.0262 152.717 94.4427C152.151 94.8534 151.722 95.3789 151.43 96.0194C151.138 96.6599 151.004 97.3408 151.027 98.062L151.065 99.2205C151.097 100.209 151.295 101.041 151.658 101.717C152.026 102.387 152.523 102.891 153.148 103.229C153.773 103.561 154.491 103.714 155.303 103.687C155.831 103.67 156.306 103.581 156.727 103.419C157.154 103.252 157.518 103.013 157.821 102.702C158.123 102.385 158.352 101.997 158.508 101.537L160.468 102.019C160.285 102.684 159.96 103.275 159.493 103.79C159.027 104.3 158.443 104.705 157.742 105.007C157.041 105.302 156.248 105.465 155.362 105.493ZM164.885 109.823C164.544 109.834 164.239 109.815 163.97 109.767C163.702 109.725 163.516 109.679 163.412 109.632L163.865 107.843C164.358 107.952 164.791 107.984 165.165 107.938C165.538 107.891 165.865 107.713 166.145 107.403C166.431 107.098 166.685 106.609 166.907 105.937L167.249 104.902L161.983 91.9074L164.164 91.8365L168.114 102.145L168.251 102.141L171.523 91.5973L173.704 91.5264L168.637 106.699C168.41 107.383 168.118 107.952 167.764 108.407C167.409 108.868 166.991 109.214 166.51 109.446C166.034 109.677 165.492 109.803 164.885 109.823ZM178.884 102.068L178.777 102.993C178.702 103.643 178.577 104.341 178.402 105.086C178.233 105.83 178.054 106.532 177.865 107.192C177.676 107.852 177.52 108.377 177.396 108.768L175.863 108.818C175.925 108.452 176.006 107.969 176.106 107.369C176.206 106.769 176.303 106.097 176.398 105.355C176.499 104.619 176.577 103.866 176.632 103.097L176.703 102.139L178.884 102.068ZM191.25 86.5902L191.817 104.036L189.705 104.104L189.138 86.6589L191.25 86.5902ZM196.951 86.4049L197.146 92.4017L195.272 92.4626L195.077 86.4658L196.951 86.4049ZM201.098 103.734L200.673 90.6499L202.615 90.5868L202.681 92.6311L202.852 92.6256C203.102 91.9182 203.524 91.3616 204.119 90.9557C204.714 90.5441 205.437 90.3245 206.289 90.2968C207.152 90.2687 207.877 90.4413 208.464 90.8145C209.055 91.1818 209.524 91.7095 209.871 92.3975L210.007 92.393C210.32 91.7064 210.805 91.1534 211.462 90.7341C212.119 90.3091 212.916 90.0814 213.853 90.0509C215.023 90.0129 215.992 90.3481 216.76 91.0565C217.527 91.7592 217.936 92.88 217.986 94.419L218.271 103.176L216.261 103.241L215.976 94.4843C215.945 93.5189 215.658 92.8375 215.116 92.4401C214.575 92.0428 213.946 91.8557 213.231 91.8789C212.311 91.9089 211.607 92.2103 211.12 92.7832C210.632 93.3505 210.402 94.0572 210.43 94.9034L210.707 103.422L208.662 103.488L208.371 94.5269C208.347 93.7829 208.086 93.1917 207.589 92.753C207.091 92.3087 206.462 92.099 205.701 92.1237C205.178 92.1407 204.694 92.2957 204.249 92.5887C203.809 92.8816 203.459 93.2795 203.196 93.7826C202.94 94.2799 202.822 94.8493 202.843 95.491L203.108 103.669L201.098 103.734ZM235.077 85.1657L237.189 85.0971L237.595 97.5678C237.631 98.6808 237.457 99.633 237.073 100.424C236.69 101.216 236.133 101.825 235.402 102.252C234.671 102.68 233.8 102.91 232.789 102.943C231.835 102.974 230.981 102.828 230.226 102.506C229.47 102.178 228.869 101.697 228.422 101.064C227.975 100.43 227.737 99.6675 227.708 98.7759L229.787 98.7084C229.803 99.2024 229.939 99.63 230.195 99.9912C230.457 100.347 230.807 100.619 231.245 100.81C231.683 101 232.178 101.086 232.728 101.069C233.336 101.049 233.849 100.904 234.266 100.635C234.684 100.365 234.995 99.9802 235.201 99.4789C235.412 98.9718 235.506 98.3576 235.482 97.6364L235.077 85.1657ZM245.577 102.595C244.748 102.622 243.991 102.49 243.305 102.2C242.619 101.904 242.067 101.464 241.65 100.881C241.233 100.292 241.011 99.5715 240.983 98.7196C240.959 97.97 241.087 97.3576 241.367 96.8823C241.647 96.4014 242.03 96.0195 242.515 95.7365C243 95.4535 243.539 95.2371 244.131 95.0871C244.729 94.9312 245.33 94.8037 245.935 94.7044C246.727 94.5763 247.369 94.4787 247.861 94.4116C248.359 94.3385 248.719 94.233 248.942 94.095C249.171 93.9568 249.28 93.7259 249.269 93.4022L249.267 93.3341C249.24 92.4936 248.989 91.848 248.514 91.3973C248.044 90.9464 247.347 90.736 246.421 90.7661C245.461 90.7973 244.716 91.0318 244.184 91.4698C243.653 91.9077 243.284 92.3688 243.078 92.8531L241.148 92.2336C241.463 91.4275 241.897 90.7937 242.45 90.3323C243.009 89.8651 243.624 89.5324 244.294 89.3344C244.969 89.1306 245.636 89.0179 246.295 88.9965C246.715 88.9828 247.2 89.0183 247.748 89.1028C248.302 89.1814 248.84 89.3657 249.361 89.6558C249.888 89.9456 250.331 90.3945 250.692 91.0024C251.053 91.6104 251.25 92.4339 251.284 93.4732L251.564 102.094L249.554 102.159L249.496 100.387L249.394 100.39C249.267 100.679 249.05 100.99 248.742 101.324C248.435 101.658 248.021 101.947 247.5 102.192C246.979 102.436 246.338 102.57 245.577 102.595ZM245.825 100.779C246.62 100.754 247.285 100.576 247.82 100.246C248.361 99.9153 248.763 99.4986 249.025 98.9955C249.293 98.4922 249.418 97.968 249.4 97.4228L249.34 95.5829C249.258 95.6879 249.074 95.7877 248.787 95.8822C248.506 95.971 248.179 96.0527 247.806 96.1273C247.439 96.1961 247.08 96.2589 246.729 96.3158C246.384 96.3668 246.104 96.41 245.889 96.4454C245.369 96.5306 244.884 96.6572 244.435 96.8253C243.991 96.9875 243.635 97.2236 243.366 97.5336C243.103 97.8378 242.98 98.2454 242.997 98.7565C243.02 99.455 243.295 99.9748 243.824 100.316C244.357 100.651 245.025 100.805 245.825 100.779ZM255.234 101.974L254.808 88.8903L256.819 88.825L257.244 101.909L255.234 101.974ZM255.76 86.6765C255.368 86.6892 255.026 86.5667 254.733 86.309C254.446 86.0512 254.296 85.7349 254.284 85.3601C254.272 84.9853 254.401 84.6599 254.67 84.3839C254.946 84.1078 255.279 83.9634 255.671 83.9506C256.063 83.9379 256.402 84.0605 256.689 84.3183C256.982 84.576 257.134 84.8922 257.146 85.267C257.159 85.6418 257.027 85.9673 256.752 86.2434C256.482 86.5194 256.151 86.6637 255.76 86.6765ZM265.875 101.901C264.785 101.937 263.813 101.693 262.961 101.169C262.108 100.64 261.429 99.8771 260.925 98.8816C260.421 97.8804 260.146 96.687 260.101 95.3013C260.056 93.9271 260.253 92.7269 260.692 91.7007C261.13 90.6746 261.761 89.8724 262.583 89.2942C263.406 88.7161 264.368 88.4091 265.47 88.3733C266.322 88.3456 266.999 88.4657 267.502 88.7336C268.011 88.9956 268.402 89.3012 268.675 89.6505C268.953 89.9939 269.17 90.2768 269.325 90.4992L269.495 90.4936L269.286 84.0538L271.296 83.9885L271.863 101.434L269.921 101.497L269.856 99.4867L269.617 99.4944C269.477 99.7377 269.277 100.046 269.016 100.418C268.755 100.784 268.377 101.118 267.881 101.418C267.384 101.713 266.716 101.874 265.875 101.901ZM266.089 100.087C266.896 100.06 267.57 99.8281 268.113 99.3898C268.656 98.9458 269.06 98.3443 269.325 97.5853C269.59 96.8206 269.707 95.9442 269.674 94.9561C269.643 93.9793 269.473 93.1293 269.165 92.4059C268.857 91.6769 268.418 91.117 267.849 90.7262C267.279 90.3298 266.585 90.1448 265.767 90.1714C264.915 90.1991 264.212 90.4408 263.659 90.8965C263.11 91.3464 262.707 91.9479 262.447 92.701C262.193 93.4483 262.08 94.282 262.11 95.2019C262.14 96.1333 262.31 96.9748 262.619 97.7265C262.933 98.4724 263.378 99.0605 263.955 99.4909C264.537 99.9153 265.249 100.114 266.089 100.087ZM281.319 101.399C280.058 101.44 278.962 101.197 278.029 100.671C277.102 100.138 276.376 99.3771 275.849 98.388C275.328 97.393 275.045 96.2255 275.002 94.8853C274.958 93.5451 275.164 92.3559 275.619 91.3179C276.08 90.2739 276.741 89.4509 277.602 88.8487C278.469 88.2407 279.494 87.9175 280.675 87.8791C281.356 87.8569 282.033 87.9486 282.705 88.1542C283.376 88.3597 283.993 88.7092 284.555 89.2026C285.117 89.6903 285.573 90.3463 285.924 91.1705C286.274 91.9948 286.47 93.0174 286.509 94.2383L286.537 95.0902L276.452 95.418L276.395 93.6803L284.436 93.4189C284.412 92.6807 284.243 92.0267 283.929 91.4571C283.621 90.8872 283.191 90.4436 282.641 90.1261C282.096 89.8084 281.46 89.6613 280.733 89.6849C279.933 89.711 279.246 89.9322 278.674 90.3488C278.108 90.7594 277.679 91.285 277.387 91.9255C277.095 92.566 276.961 93.2469 276.984 93.9681L277.022 95.1266C277.054 96.1147 277.252 96.9468 277.615 97.6228C277.983 98.293 278.48 98.797 279.105 99.1349C279.73 99.467 280.448 99.6199 281.26 99.5935C281.788 99.5764 282.263 99.487 282.684 99.3255C283.111 99.1582 283.475 98.9189 283.778 98.6078C284.08 98.291 284.309 97.9027 284.465 97.4428L286.425 97.9249C286.242 98.5903 285.917 99.1807 285.45 99.6961C284.984 100.206 284.4 100.611 283.699 100.913C282.998 101.208 282.205 101.371 281.319 101.399ZM295.28 100.946C294.02 100.987 292.923 100.744 291.991 100.217C291.064 99.6842 290.337 98.9233 289.81 97.9342C289.289 96.9393 289.007 95.7717 288.963 94.4315C288.919 93.0913 289.125 91.9021 289.58 90.8641C290.041 89.8202 290.702 88.9971 291.564 88.3949C292.431 87.7869 293.455 87.4637 294.636 87.4253C295.318 87.4032 295.994 87.4949 296.666 87.7004C297.338 87.906 297.955 88.2554 298.516 88.7488C299.078 89.2365 299.534 89.8925 299.885 90.7168C300.236 91.541 300.431 92.5636 300.471 93.7846L300.498 94.6364L290.413 94.9642L290.356 93.2265L298.398 92.9651C298.374 92.2269 298.205 91.5729 297.89 91.0033C297.582 90.4335 297.153 89.9898 296.602 89.6723C296.058 89.3546 295.422 89.2075 294.695 89.2312C293.894 89.2572 293.208 89.4785 292.636 89.895C292.069 90.3057 291.64 90.8312 291.348 91.4717C291.056 92.1122 290.922 92.7931 290.946 93.5143L290.983 94.6728C291.015 95.6609 291.213 96.493 291.576 97.1691C291.945 97.8393 292.441 98.3433 293.066 98.6811C293.691 99.0133 294.409 99.1661 295.222 99.1397C295.75 99.1226 296.224 99.0332 296.645 98.8718C297.072 98.7044 297.437 98.4652 297.739 98.154C298.041 97.8372 298.27 97.4489 298.426 96.989L300.386 97.4711C300.203 98.1365 299.878 98.7269 299.412 99.2423C298.945 99.7521 298.361 100.158 297.661 100.459C296.96 100.755 296.166 100.917 295.28 100.946ZM303.906 105.304L303.322 87.3135L305.264 87.2504L305.331 89.3289L305.57 89.3211C305.71 89.0892 305.905 88.7929 306.155 88.4323C306.41 88.0659 306.78 87.7355 307.265 87.4412C307.756 87.141 308.427 86.9771 309.279 86.9494C310.381 86.9136 311.361 87.1574 312.219 87.681C313.077 88.2045 313.759 88.964 314.263 89.9595C314.767 90.955 315.042 92.1399 315.086 93.5142C315.131 94.8998 314.935 96.1085 314.496 97.1404C314.058 98.1665 313.43 98.9714 312.614 99.5551C311.797 100.133 310.843 100.44 309.753 100.475C308.912 100.503 308.235 100.385 307.72 100.123C307.206 99.8559 306.806 99.5477 306.522 99.1988C306.238 98.8442 306.018 98.5501 305.862 98.3164L305.692 98.3219L305.917 105.239L303.906 105.304ZM305.511 93.7913C305.543 94.7794 305.716 95.6464 306.03 96.3923C306.344 97.1325 306.786 97.7065 307.357 98.1143C307.927 98.5164 308.615 98.7044 309.421 98.6782C310.262 98.6509 310.956 98.4066 311.504 97.9454C312.057 97.4783 312.463 96.8625 312.723 96.098C312.988 95.3276 313.105 94.4768 313.075 93.5455C313.045 92.6255 312.876 91.801 312.568 91.072C312.266 90.3371 311.823 89.7631 311.242 89.35C310.665 88.931 309.951 88.7353 309.099 88.763C308.281 88.7896 307.601 89.0192 307.058 89.4518C306.515 89.8788 306.113 90.466 305.853 91.2135C305.593 91.9553 305.479 92.8146 305.511 93.7913ZM321.285 97.4399L321.179 98.3643C321.103 99.0148 320.978 99.7124 320.803 100.457C320.634 101.202 320.455 101.904 320.266 102.564C320.078 103.224 319.921 103.749 319.797 104.139L318.264 104.189C318.326 103.823 318.407 103.34 318.507 102.74C318.607 102.14 318.704 101.469 318.8 100.727C318.901 99.9903 318.979 99.2373 319.033 98.4681L319.105 97.5108L321.285 97.4399ZM335.694 99.6662C334.865 99.6931 334.107 99.5614 333.421 99.271C332.735 98.975 332.184 98.5353 331.767 97.9519C331.35 97.3629 331.127 96.6425 331.1 95.7906C331.075 95.041 331.203 94.4286 331.483 93.9533C331.763 93.4724 332.146 93.0904 332.631 92.8075C333.117 92.5245 333.656 92.308 334.248 92.1581C334.845 92.0022 335.446 91.8746 336.051 91.7754C336.843 91.6473 337.485 91.5497 337.978 91.4825C338.475 91.4095 338.836 91.304 339.059 91.166C339.287 91.0278 339.396 90.7969 339.386 90.4732L339.384 90.4051C339.356 89.5646 339.105 88.919 338.63 88.4683C338.161 88.0174 337.463 87.807 336.537 87.8371C335.578 87.8683 334.832 88.1028 334.301 88.5408C333.769 88.9787 333.4 89.4398 333.194 89.924L331.264 89.3046C331.579 88.4985 332.013 87.8647 332.567 87.4033C333.126 86.9361 333.74 86.6034 334.41 86.4054C335.086 86.2015 335.753 86.0889 336.412 86.0675C336.832 86.0538 337.316 86.0893 337.865 86.1738C338.419 86.2524 338.956 86.4367 339.477 86.7268C340.004 87.0166 340.448 87.4655 340.809 88.0734C341.17 88.6814 341.367 89.5049 341.401 90.5441L341.681 99.1646L339.67 99.2299L339.613 97.4581L339.511 97.4615C339.384 97.7498 339.166 98.061 338.859 98.3951C338.551 98.7291 338.137 99.0183 337.616 99.2626C337.096 99.5069 336.455 99.6414 335.694 99.6662ZM335.942 97.8503C336.737 97.8245 337.402 97.6465 337.937 97.3165C338.478 96.9863 338.879 96.5696 339.141 96.0665C339.409 95.5632 339.534 95.039 339.517 94.4938L339.457 92.6539C339.375 92.7589 339.191 92.8586 338.904 92.9532C338.622 93.042 338.295 93.1237 337.923 93.1983C337.555 93.2671 337.196 93.3299 336.846 93.3868C336.501 93.4378 336.221 93.481 336.006 93.5164C335.485 93.6016 335.001 93.7282 334.551 93.8963C334.108 94.0585 333.751 94.2946 333.483 94.6046C333.22 94.9088 333.097 95.3164 333.113 95.8275C333.136 96.526 333.412 97.0457 333.94 97.3867C334.474 97.7218 335.141 97.8764 335.942 97.8503ZM357.546 103.833C356.575 103.865 355.736 103.767 355.03 103.54C354.323 103.319 353.731 103.014 353.252 102.626C352.779 102.243 352.399 101.829 352.111 101.384L353.676 100.207C353.866 100.44 354.105 100.705 354.393 101.003C354.681 101.306 355.07 101.563 355.561 101.775C356.057 101.992 356.699 102.087 357.489 102.062C358.545 102.027 359.408 101.743 360.079 101.21C360.749 100.677 361.067 99.8648 361.031 98.7744L360.945 96.1167L360.775 96.1223C360.635 96.3656 360.434 96.6677 360.173 97.0287C359.917 97.3837 359.541 97.7058 359.045 97.9948C358.554 98.2779 357.882 98.4334 357.03 98.461C355.974 98.4954 355.018 98.2763 354.161 97.8039C353.31 97.3313 352.625 96.6259 352.105 95.6878C351.592 94.7494 351.313 93.5988 351.268 92.2359C351.225 90.8956 351.422 89.721 351.862 88.7119C352.3 87.6971 352.931 86.9034 353.754 86.331C354.576 85.7528 355.539 85.4458 356.64 85.41C357.492 85.3823 358.173 85.5023 358.681 85.77C359.196 86.0319 359.592 86.3373 359.871 86.6864C360.155 87.0296 360.375 87.3124 360.53 87.5348L360.734 87.5281L360.666 85.4497L362.609 85.3866L363.046 98.8454C363.083 99.9698 362.857 100.892 362.369 101.613C361.886 102.339 361.222 102.881 360.375 103.238C359.534 103.601 358.591 103.8 357.546 103.833ZM357.244 96.6463C358.051 96.6201 358.726 96.4134 359.271 96.0262C359.815 95.639 360.221 95.0943 360.488 94.392C360.755 93.6898 360.873 92.856 360.842 91.8906C360.811 90.9479 360.642 90.1206 360.335 89.4086C360.027 88.6966 359.589 88.1452 359.019 87.7544C358.449 87.3636 357.755 87.1815 356.938 87.2081C356.086 87.2358 355.383 87.4747 354.829 87.9247C354.281 88.3746 353.877 88.9676 353.616 89.7037C353.362 90.4396 353.249 91.2505 353.278 92.1364C353.307 93.045 353.475 93.844 353.782 94.5333C354.094 95.2167 354.538 95.748 355.113 96.1272C355.693 96.5006 356.404 96.6736 357.244 96.6463ZM366.714 98.351L366.288 85.267L368.231 85.2038L368.295 87.1801L368.431 87.1756C368.649 86.5205 369.063 85.9812 369.675 85.5577C370.286 85.1342 370.984 84.9097 371.768 84.8842C371.915 84.8794 372.1 84.8763 372.322 84.8747C372.543 84.8732 372.711 84.8763 372.825 84.884L372.891 86.9283C372.823 86.9135 372.666 86.893 372.42 86.8669C372.181 86.8349 371.927 86.8232 371.66 86.8319C371.024 86.8526 370.461 87.0045 369.97 87.2876C369.484 87.5649 369.104 87.9411 368.83 88.4162C368.561 88.8854 368.436 89.4153 368.455 90.0059L368.724 98.2856L366.714 98.351ZM379.499 98.2424C378.67 98.2693 377.912 98.1376 377.226 97.8473C376.54 97.5512 375.989 97.1115 375.572 96.5282C375.155 95.9391 374.932 95.2187 374.905 94.3669C374.88 93.6173 375.008 93.0048 375.288 92.5296C375.568 92.0486 375.951 91.6667 376.436 91.3837C376.922 91.1008 377.461 90.8843 378.053 90.7343C378.65 90.5784 379.251 90.4509 379.856 90.3516C380.648 90.2236 381.29 90.1259 381.783 90.0588C382.28 89.9857 382.641 89.8802 382.864 89.7422C383.092 89.6041 383.201 89.3731 383.191 89.0494L383.189 88.9813C383.161 88.1408 382.91 87.4952 382.435 87.0445C381.966 86.5936 381.268 86.3832 380.342 86.4133C379.383 86.4445 378.637 86.6791 378.106 87.117C377.574 87.555 377.205 88.0161 376.999 88.5003L375.069 87.8808C375.384 87.0747 375.818 86.441 376.372 85.9796C376.931 85.5123 377.545 85.1797 378.215 84.9816C378.891 84.7778 379.558 84.6651 380.217 84.6437C380.637 84.6301 381.121 84.6655 381.67 84.75C382.224 84.8286 382.761 85.013 383.282 85.303C383.809 85.5929 384.253 86.0418 384.614 86.6497C384.975 87.2576 385.172 88.0812 385.206 89.1204L385.486 97.7408L383.475 97.8062L383.418 96.0344L383.316 96.0377C383.189 96.3261 382.971 96.6373 382.664 96.9713C382.356 97.3053 381.942 97.5945 381.421 97.8388C380.901 98.0831 380.26 98.2177 379.499 98.2424ZM379.747 96.4266C380.542 96.4007 381.207 96.2228 381.742 95.8927C382.283 95.5625 382.684 95.1458 382.946 94.6427C383.214 94.1394 383.339 93.6152 383.322 93.07L383.262 91.2301C383.18 91.3351 382.996 91.4349 382.709 91.5295C382.427 91.6182 382.1 91.6999 381.727 91.7745C381.36 91.8433 381.001 91.9062 380.651 91.963C380.306 92.014 380.026 92.0572 379.811 92.0927C379.29 92.1778 378.806 92.3044 378.356 92.4725C377.913 92.6347 377.556 92.8708 377.288 93.1809C377.025 93.485 376.902 93.8927 376.918 94.4037C376.941 95.1022 377.217 95.622 377.745 95.9629C378.279 96.298 378.946 96.4526 379.747 96.4266ZM389.314 102.528L388.73 84.5376L390.672 84.4744L390.739 86.5529L390.978 86.5451C391.118 86.3132 391.313 86.0169 391.563 85.6563C391.818 85.2899 392.188 84.9595 392.673 84.6652C393.164 84.365 393.835 84.2011 394.687 84.1734C395.789 84.1376 396.769 84.3815 397.627 84.905C398.485 85.4285 399.167 86.188 399.671 87.1835C400.175 88.179 400.45 89.3639 400.494 90.7382C400.539 92.1238 400.343 93.3326 399.904 94.3644C399.466 95.3906 398.838 96.1955 398.022 96.7791C397.205 97.3571 396.251 97.6638 395.161 97.6992C394.32 97.7266 393.643 97.6093 393.128 97.3475C392.614 97.0799 392.214 96.7717 391.93 96.4228C391.646 96.0682 391.426 95.7741 391.27 95.5404L391.1 95.5459L391.325 102.463L389.314 102.528ZM390.919 91.0153C390.951 92.0034 391.124 92.8704 391.438 93.6163C391.752 94.3565 392.194 94.9305 392.765 95.3383C393.335 95.7405 394.023 95.9284 394.829 95.9022C395.67 95.8749 396.364 95.6306 396.912 95.1694C397.465 94.7023 397.871 94.0865 398.131 93.322C398.396 92.5517 398.513 91.7008 398.483 90.7695C398.453 89.8495 398.284 89.025 397.976 88.296C397.674 87.5611 397.231 86.9871 396.65 86.574C396.073 86.155 395.359 85.9593 394.507 85.987C393.689 86.0136 393.009 86.2432 392.466 86.6758C391.923 87.1028 391.521 87.69 391.261 88.4375C391.001 89.1793 390.887 90.0386 390.919 91.0153ZM405.527 89.2103L405.783 97.0811L403.772 97.1465L403.205 79.7011L405.216 79.6358L405.424 86.0415L405.594 86.036C405.879 85.3502 406.321 84.7986 406.922 84.3812C407.528 83.9579 408.345 83.7295 409.372 83.6961C410.264 83.6671 411.051 83.8206 411.732 84.1566C412.414 84.4869 412.951 85.0123 413.344 85.7329C413.742 86.4476 413.96 87.3672 413.997 88.4916L414.267 96.8054L412.256 96.8707L411.991 88.6932C411.957 87.654 411.661 86.8592 411.103 86.3089C410.551 85.7526 409.8 85.49 408.852 85.5208C408.193 85.5422 407.607 85.7005 407.094 85.9958C406.586 86.2908 406.19 86.7101 405.907 87.2537C405.629 87.7971 405.502 88.4493 405.527 89.2103ZM417.944 96.6858L417.519 83.6018L419.53 83.5365L419.955 96.6205L417.944 96.6858ZM418.471 81.3879C418.079 81.4007 417.736 81.2782 417.444 81.0205C417.157 80.7627 417.007 80.4463 416.995 80.0715C416.983 79.6967 417.112 79.3714 417.381 79.0954C417.657 78.8193 417.99 78.6749 418.382 78.6621C418.774 78.6494 419.113 78.7719 419.4 79.0298C419.693 79.2875 419.845 79.6037 419.857 79.9785C419.869 80.3533 419.738 80.6788 419.463 80.9549C419.193 81.2309 418.862 81.3752 418.471 81.3879ZM428.961 96.6006C427.734 96.6405 426.669 96.3852 425.764 95.8348C424.859 95.2843 424.152 94.5086 423.642 93.5076C423.132 92.5066 422.856 91.353 422.813 90.0469C422.77 88.7181 422.976 87.5374 423.431 86.5051C423.892 85.4668 424.553 84.6466 425.415 84.0444C426.282 83.4364 427.306 83.1132 428.487 83.0748C429.407 83.0449 430.242 83.1883 430.991 83.5051C431.741 83.8218 432.361 84.2792 432.852 84.8771C433.343 85.4751 433.659 86.1812 433.799 86.9952L431.789 87.0606C431.616 86.4693 431.258 85.9522 430.715 85.5094C430.178 85.0607 429.466 84.8508 428.58 84.8796C427.796 84.905 427.116 85.1318 426.539 85.5599C425.967 85.9821 425.528 86.5677 425.223 87.3166C424.923 88.0597 424.789 88.9253 424.821 89.9134C424.854 90.9242 425.042 91.7993 425.384 92.5386C425.732 93.2776 426.205 93.845 426.804 94.2405C427.408 94.6359 428.107 94.8206 428.902 94.7948C429.425 94.7778 429.896 94.6715 430.316 94.476C430.736 94.2804 431.088 94.0074 431.372 93.6571C431.657 93.3068 431.853 92.8911 431.963 92.41L433.973 92.3447C433.885 93.1207 433.626 93.8255 433.198 94.459C432.775 95.0868 432.203 95.5942 431.482 95.9815C430.767 96.3629 429.926 96.5693 428.961 96.6006ZM135.928 140.143C134.838 140.178 133.866 139.934 133.013 139.41C132.16 138.881 131.482 138.119 130.978 137.123C130.473 136.122 130.199 134.929 130.154 133.543C130.109 132.169 130.306 130.968 130.744 129.942C131.183 128.916 131.813 128.114 132.636 127.536C133.459 126.958 134.421 126.651 135.522 126.615C136.374 126.587 137.052 126.707 137.555 126.975C138.064 127.237 138.455 127.543 138.727 127.892C139.006 128.235 139.222 128.518 139.378 128.741L139.548 128.735L139.339 122.295L141.349 122.23L141.916 139.675L139.974 139.739L139.908 137.728L139.67 137.736C139.53 137.979 139.33 138.287 139.069 138.659C138.808 139.026 138.429 139.36 137.933 139.66C137.437 139.955 136.768 140.116 135.928 140.143ZM136.142 138.328C136.948 138.302 137.623 138.07 138.166 137.631C138.708 137.187 139.112 136.586 139.378 135.827C139.643 135.062 139.759 134.186 139.727 133.198C139.695 132.221 139.526 131.371 139.218 130.647C138.91 129.918 138.471 129.359 137.901 128.968C137.331 128.571 136.637 128.386 135.82 128.413C134.968 128.441 134.265 128.682 133.711 129.138C133.163 129.588 132.759 130.189 132.499 130.943C132.245 131.69 132.133 132.524 132.163 133.443C132.193 134.375 132.363 135.216 132.671 135.968C132.985 136.714 133.431 137.302 134.008 137.732C134.59 138.157 135.301 138.355 136.142 138.328ZM151.371 139.641C150.111 139.682 149.014 139.439 148.082 138.912C147.155 138.38 146.428 137.619 145.901 136.63C145.38 135.635 145.098 134.467 145.054 133.127C145.011 131.787 145.216 130.597 145.672 129.559C146.132 128.516 146.793 127.692 147.655 127.09C148.522 126.482 149.546 126.159 150.727 126.121C151.409 126.098 152.085 126.19 152.757 126.396C153.429 126.601 154.046 126.951 154.608 127.444C155.169 127.932 155.625 128.588 155.976 129.412C156.327 130.236 156.522 131.259 156.562 132.48L156.59 133.332L146.504 133.66L146.448 131.922L154.489 131.66C154.465 130.922 154.296 130.268 153.982 129.699C153.673 129.129 153.244 128.685 152.693 128.368C152.149 128.05 151.513 127.903 150.786 127.927C149.985 127.953 149.299 128.174 148.727 128.59C148.16 129.001 147.731 129.527 147.439 130.167C147.148 130.808 147.013 131.488 147.037 132.21L147.075 133.368C147.107 134.356 147.304 135.188 147.667 135.864C148.036 136.535 148.533 137.039 149.158 137.376C149.782 137.709 150.501 137.861 151.313 137.835C151.841 137.818 152.316 137.729 152.737 137.567C153.163 137.4 153.528 137.161 153.83 136.849C154.133 136.533 154.362 136.144 154.517 135.684L156.477 136.166C156.294 136.832 155.969 137.422 155.503 137.938C155.036 138.447 154.453 138.853 153.752 139.154C153.051 139.45 152.257 139.612 151.371 139.641ZM168.776 128.638L166.987 129.208C166.863 128.91 166.686 128.623 166.456 128.347C166.23 128.064 165.927 127.835 165.547 127.66C165.166 127.485 164.683 127.407 164.098 127.426C163.297 127.452 162.636 127.658 162.114 128.044C161.598 128.425 161.349 128.896 161.367 129.459C161.383 129.958 161.578 130.347 161.951 130.625C162.323 130.903 162.899 131.126 163.678 131.294L165.635 131.707C166.815 131.953 167.7 132.359 168.293 132.926C168.885 133.486 169.196 134.224 169.226 135.138C169.25 135.888 169.056 136.565 168.644 137.169C168.237 137.774 167.656 138.259 166.901 138.625C166.145 138.99 165.259 139.19 164.242 139.223C162.908 139.266 161.794 139.012 160.901 138.461C160.007 137.911 159.426 137.082 159.157 135.977L161.05 135.438C161.254 136.136 161.615 136.653 162.132 136.989C162.654 137.324 163.327 137.479 164.151 137.452C165.088 137.421 165.825 137.199 166.363 136.783C166.907 136.362 167.169 135.87 167.151 135.308C167.136 134.854 166.965 134.478 166.637 134.182C166.309 133.88 165.813 133.663 165.149 133.531L162.952 133.091C161.744 132.846 160.85 132.434 160.268 131.856C159.692 131.272 159.389 130.529 159.36 129.626C159.336 128.888 159.522 128.228 159.918 127.647C160.32 127.065 160.876 126.601 161.587 126.254C162.303 125.906 163.121 125.718 164.041 125.688C165.336 125.646 166.362 125.897 167.119 126.441C167.881 126.984 168.433 127.717 168.776 128.638ZM172.371 138.686L171.945 125.602L173.956 125.536L174.381 138.62L172.371 138.686ZM172.897 123.388C172.505 123.4 172.163 123.278 171.87 123.02C171.583 122.762 171.434 122.446 171.421 122.071C171.409 121.696 171.538 121.371 171.807 121.095C172.083 120.819 172.416 120.675 172.808 120.662C173.2 120.649 173.539 120.772 173.826 121.03C174.119 121.287 174.271 121.603 174.283 121.978C174.296 122.353 174.164 122.679 173.889 122.955C173.619 123.231 173.289 123.375 172.897 123.388ZM183.513 143.508C182.542 143.54 181.703 143.442 180.996 143.215C180.29 142.993 179.697 142.688 179.218 142.3C178.745 141.918 178.365 141.504 178.078 141.058L179.643 139.882C179.832 140.114 180.071 140.379 180.359 140.677C180.648 140.98 181.037 141.238 181.527 141.449C182.023 141.666 182.666 141.762 183.455 141.736C184.511 141.702 185.375 141.418 186.045 140.885C186.716 140.351 187.033 139.539 186.998 138.449L186.911 135.791L186.741 135.797C186.601 136.04 186.401 136.342 186.14 136.703C185.884 137.058 185.508 137.38 185.011 137.669C184.52 137.952 183.849 138.108 182.997 138.136C181.941 138.17 180.984 137.951 180.127 137.478C179.276 137.006 178.591 136.3 178.072 135.362C177.558 134.424 177.279 133.273 177.235 131.91C177.191 130.57 177.389 129.395 177.828 128.386C178.267 127.372 178.898 126.578 179.72 126.005C180.543 125.427 181.505 125.12 182.607 125.084C183.459 125.057 184.139 125.177 184.648 125.445C185.162 125.706 185.559 126.012 185.837 126.361C186.122 126.704 186.341 126.987 186.496 127.209L186.701 127.203L186.633 125.124L188.575 125.061L189.013 138.52C189.049 139.644 188.823 140.567 188.335 141.288C187.853 142.014 187.188 142.556 186.341 142.913C185.5 143.276 184.558 143.474 183.513 143.508ZM183.211 136.321C184.017 136.295 184.693 136.088 185.237 135.701C185.782 135.313 186.188 134.769 186.455 134.067C186.722 133.364 186.84 132.53 186.808 131.565C186.778 130.622 186.609 129.795 186.301 129.083C185.994 128.371 185.555 127.82 184.985 127.429C184.416 127.038 183.722 126.856 182.904 126.883C182.052 126.91 181.349 127.149 180.796 127.599C180.247 128.049 179.843 128.642 179.583 129.378C179.328 130.114 179.215 130.925 179.244 131.811C179.274 132.72 179.442 133.518 179.748 134.208C180.06 134.891 180.504 135.422 181.079 135.802C181.66 136.175 182.37 136.348 183.211 136.321ZM194.435 130.089L194.691 137.96L192.68 138.025L192.255 124.941L194.197 124.878L194.264 126.923L194.434 126.917C194.719 126.243 195.167 125.694 195.779 125.27C196.39 124.841 197.19 124.61 198.178 124.578C199.064 124.55 199.845 124.706 200.521 125.048C201.197 125.384 201.732 125.913 202.125 126.633C202.518 127.348 202.732 128.262 202.768 129.375L203.038 137.689L201.028 137.754L200.762 129.577C200.729 128.549 200.436 127.757 199.884 127.2C199.331 126.639 198.589 126.373 197.658 126.403C197.016 126.424 196.447 126.582 195.95 126.876C195.46 127.171 195.078 127.59 194.806 128.133C194.534 128.676 194.41 129.328 194.435 130.089ZM212.207 137.664C210.946 137.705 209.849 137.462 208.917 136.935C207.99 136.402 207.263 135.641 206.736 134.652C206.215 133.657 205.933 132.49 205.889 131.15C205.846 129.809 206.052 128.62 206.507 127.582C206.967 126.538 207.628 125.715 208.49 125.113C209.357 124.505 210.381 124.182 211.562 124.143C212.244 124.121 212.921 124.213 213.592 124.418C214.264 124.624 214.881 124.973 215.443 125.467C216.004 125.955 216.46 126.611 216.811 127.435C217.162 128.259 217.357 129.282 217.397 130.503L217.425 131.354L207.339 131.682L207.283 129.945L215.324 129.683C215.3 128.945 215.131 128.291 214.817 127.721C214.508 127.152 214.079 126.708 213.528 126.39C212.984 126.073 212.348 125.926 211.621 125.949C210.82 125.975 210.134 126.197 209.562 126.613C208.996 127.024 208.566 127.549 208.275 128.19C207.983 128.83 207.848 129.511 207.872 130.232L207.91 131.391C207.942 132.379 208.139 133.211 208.502 133.887C208.871 134.557 209.368 135.061 209.993 135.399C210.617 135.731 211.336 135.884 212.148 135.858C212.676 135.841 213.151 135.751 213.572 135.59C213.998 135.422 214.363 135.183 214.665 134.872C214.968 134.555 215.197 134.167 215.352 133.707L217.312 134.189C217.129 134.855 216.804 135.445 216.338 135.96C215.871 136.47 215.288 136.876 214.587 137.177C213.886 137.473 213.092 137.635 212.207 137.664ZM220.673 137.116L220.248 124.032L222.19 123.968L222.254 125.945L222.391 125.94C222.608 125.285 223.023 124.746 223.634 124.322C224.246 123.899 224.943 123.674 225.727 123.649C225.875 123.644 226.059 123.641 226.281 123.639C226.503 123.638 226.671 123.641 226.784 123.649L226.851 125.693C226.782 125.678 226.625 125.658 226.38 125.632C226.14 125.6 225.887 125.588 225.62 125.597C224.984 125.617 224.42 125.769 223.929 126.052C223.444 126.33 223.064 126.706 222.789 127.181C222.52 127.65 222.395 128.18 222.414 128.771L222.684 137.05L220.673 137.116ZM236.617 136.597L236.05 119.152L238.061 119.087L238.27 125.526L238.44 125.521C238.581 125.289 238.776 124.993 239.025 124.632C239.281 124.266 239.651 123.935 240.136 123.641C240.626 123.341 241.297 123.177 242.149 123.149C243.251 123.113 244.231 123.357 245.089 123.881C245.948 124.404 246.629 125.164 247.133 126.159C247.637 127.155 247.912 128.34 247.956 129.714C248.002 131.1 247.805 132.308 247.367 133.34C246.928 134.366 246.301 135.171 245.484 135.755C244.667 136.333 243.713 136.64 242.623 136.675C241.783 136.702 241.105 136.585 240.591 136.323C240.076 136.056 239.677 135.748 239.392 135.399C239.108 135.044 238.888 134.75 238.733 134.516L238.494 134.524L238.559 136.534L236.617 136.597ZM238.381 129.991C238.413 130.979 238.586 131.846 238.9 132.592C239.214 133.332 239.656 133.906 240.227 134.314C240.797 134.716 241.485 134.904 242.292 134.878C243.132 134.851 243.826 134.606 244.374 134.145C244.927 133.678 245.334 133.062 245.593 132.298C245.858 131.527 245.975 130.677 245.945 129.745C245.915 128.825 245.746 128.001 245.438 127.272C245.136 126.537 244.694 125.963 244.112 125.55C243.535 125.131 242.821 124.935 241.969 124.963C241.152 124.989 240.471 125.219 239.928 125.652C239.385 126.079 238.983 126.666 238.723 127.413C238.463 128.155 238.349 129.014 238.381 129.991ZM256.567 136.222C255.386 136.26 254.341 136.013 253.431 135.48C252.527 134.946 251.808 134.182 251.276 133.188C250.749 132.193 250.463 131.02 250.419 129.668C250.375 128.305 250.583 127.107 251.044 126.075C251.511 125.042 252.178 124.23 253.046 123.639C253.919 123.048 254.946 122.733 256.128 122.695C257.309 122.656 258.352 122.904 259.256 123.437C260.166 123.971 260.884 124.737 261.411 125.738C261.944 126.738 262.232 127.92 262.277 129.283C262.321 130.634 262.109 131.824 261.642 132.851C261.181 133.878 260.514 134.687 259.641 135.278C258.773 135.869 257.749 136.183 256.567 136.222ZM256.509 134.416C257.406 134.387 258.137 134.133 258.701 133.654C259.265 133.175 259.674 132.556 259.928 131.798C260.182 131.039 260.295 130.223 260.266 129.348C260.238 128.473 260.072 127.663 259.77 126.917C259.467 126.171 259.018 125.574 258.424 125.127C257.829 124.68 257.084 124.472 256.186 124.501C255.289 124.53 254.558 124.787 253.994 125.271C253.43 125.756 253.021 126.38 252.768 127.144C252.514 127.909 252.401 128.728 252.43 129.603C252.458 130.477 252.624 131.285 252.926 132.025C253.229 132.766 253.677 133.357 254.271 133.798C254.866 134.239 255.611 134.445 256.509 134.416ZM265.556 135.657L265.131 122.573L267.073 122.51L267.137 124.486L267.273 124.481C267.491 123.826 267.905 123.287 268.517 122.864C269.128 122.44 269.826 122.216 270.61 122.19C270.757 122.185 270.942 122.182 271.164 122.181C271.385 122.179 271.553 122.182 271.667 122.19L271.733 124.234C271.665 124.219 271.508 124.199 271.262 124.173C271.023 124.141 270.769 124.129 270.502 124.138C269.866 124.158 269.303 124.31 268.812 124.593C268.326 124.871 267.946 125.247 267.672 125.722C267.403 126.191 267.278 126.721 267.297 127.312L267.566 135.591L265.556 135.657ZM276.235 127.431L276.491 135.301L274.481 135.367L274.056 122.283L275.998 122.22L276.064 124.264L276.235 124.258C276.52 123.584 276.968 123.035 277.579 122.612C278.191 122.182 278.991 121.952 279.979 121.92C280.865 121.891 281.646 122.047 282.322 122.389C282.998 122.725 283.532 123.254 283.925 123.974C284.318 124.689 284.533 125.603 284.569 126.716L284.839 135.03L282.829 135.095L282.563 126.918C282.529 125.89 282.237 125.098 281.684 124.542C281.131 123.98 280.389 123.714 279.458 123.744C278.816 123.765 278.247 123.923 277.751 124.218C277.26 124.512 276.879 124.931 276.607 125.474C276.334 126.017 276.211 126.67 276.235 127.431ZM299.119 134.873C298.29 134.9 297.532 134.768 296.847 134.478C296.16 134.182 295.609 133.742 295.192 133.159C294.775 132.57 294.553 131.849 294.525 130.997C294.501 130.248 294.628 129.635 294.909 129.16C295.189 128.679 295.571 128.297 296.057 128.014C296.542 127.731 297.081 127.515 297.673 127.365C298.27 127.209 298.872 127.081 299.477 126.982C300.268 126.854 300.91 126.756 301.403 126.689C301.901 126.616 302.261 126.511 302.484 126.373C302.713 126.235 302.822 126.004 302.811 125.68L302.809 125.612C302.782 124.771 302.53 124.126 302.055 123.675C301.586 123.224 300.888 123.014 299.963 123.044C299.003 123.075 298.257 123.31 297.726 123.748C297.194 124.185 296.825 124.647 296.62 125.131L294.689 124.511C295.004 123.705 295.438 123.071 295.992 122.61C296.551 122.143 297.165 121.81 297.835 121.612C298.511 121.408 299.178 121.296 299.837 121.274C300.257 121.261 300.741 121.296 301.29 121.38C301.844 121.459 302.381 121.643 302.902 121.933C303.429 122.223 303.873 122.672 304.234 123.28C304.595 123.888 304.792 124.712 304.826 125.751L305.106 134.371L303.096 134.437L303.038 132.665L302.936 132.668C302.809 132.957 302.592 133.268 302.284 133.602C301.977 133.936 301.562 134.225 301.042 134.469C300.521 134.714 299.88 134.848 299.119 134.873ZM299.367 133.057C300.162 133.031 300.827 132.853 301.362 132.523C301.903 132.193 302.304 131.776 302.566 131.273C302.834 130.77 302.959 130.246 302.942 129.701L302.882 127.861C302.8 127.966 302.616 128.065 302.329 128.16C302.048 128.249 301.72 128.33 301.348 128.405C300.98 128.474 300.621 128.537 300.271 128.594C299.926 128.645 299.646 128.688 299.431 128.723C298.911 128.808 298.426 128.935 297.977 129.103C297.533 129.265 297.177 129.501 296.908 129.811C296.645 130.116 296.522 130.523 296.539 131.034C296.561 131.733 296.837 132.252 297.365 132.593C297.899 132.929 298.566 133.083 299.367 133.057ZM310.53 126.316L310.786 134.187L308.775 134.252L308.35 121.168L310.292 121.105L310.359 123.149L310.529 123.144C310.814 122.469 311.262 121.92 311.874 121.497C312.485 121.068 313.285 120.837 314.273 120.805C315.159 120.776 315.94 120.933 316.616 121.275C317.292 121.611 317.827 122.139 318.22 122.86C318.613 123.575 318.827 124.489 318.863 125.602L319.133 133.915L317.123 133.981L316.857 125.803C316.824 124.775 316.531 123.983 315.978 123.427C315.426 122.865 314.684 122.599 313.753 122.63C313.111 122.651 312.542 122.808 312.045 123.103C311.555 123.398 311.173 123.816 310.901 124.36C310.629 124.903 310.505 125.555 310.53 126.316ZM327.756 133.908C326.666 133.943 325.694 133.699 324.842 133.176C323.989 132.646 323.31 131.884 322.806 130.888C322.302 129.887 322.027 128.694 321.982 127.308C321.937 125.934 322.134 124.734 322.573 123.707C323.011 122.681 323.642 121.879 324.464 121.301C325.287 120.723 326.249 120.416 327.351 120.38C328.203 120.352 328.88 120.472 329.383 120.74C329.892 121.002 330.283 121.308 330.556 121.657C330.834 122.001 331.051 122.283 331.206 122.506L331.376 122.5L331.167 116.061L333.177 115.995L333.744 133.441L331.802 133.504L331.737 131.493L331.498 131.501C331.358 131.744 331.158 132.052 330.897 132.425C330.636 132.791 330.258 133.125 329.762 133.425C329.265 133.72 328.597 133.881 327.756 133.908ZM327.97 132.093C328.777 132.067 329.451 131.835 329.994 131.396C330.537 130.952 330.941 130.351 331.206 129.592C331.471 128.827 331.588 127.951 331.555 126.963C331.524 125.986 331.354 125.136 331.046 124.413C330.738 123.684 330.299 123.124 329.73 122.733C329.16 122.336 328.466 122.151 327.648 122.178C326.796 122.206 326.093 122.447 325.54 122.903C324.991 123.353 324.588 123.955 324.328 124.708C324.074 125.455 323.961 126.289 323.991 127.209C324.021 128.14 324.191 128.981 324.5 129.733C324.814 130.479 325.259 131.067 325.836 131.498C326.418 131.922 327.13 132.121 327.97 132.093ZM344.724 133.084L344.157 115.638L346.168 115.573L346.377 122.013L346.547 122.007C346.687 121.775 346.883 121.479 347.132 121.118C347.388 120.752 347.758 120.422 348.243 120.127C348.733 119.827 349.404 119.663 350.256 119.635C351.358 119.6 352.338 119.844 353.196 120.367C354.055 120.891 354.736 121.65 355.24 122.646C355.744 123.641 356.019 124.826 356.063 126.2C356.108 127.586 355.912 128.795 355.474 129.826C355.035 130.853 354.407 131.658 353.591 132.241C352.774 132.819 351.82 133.126 350.73 133.161C349.889 133.189 349.212 133.071 348.698 132.81C348.183 132.542 347.783 132.234 347.499 131.885C347.215 131.53 346.995 131.236 346.84 131.002L346.601 131.01L346.666 133.021L344.724 133.084ZM346.488 126.477C346.52 127.466 346.693 128.333 347.007 129.078C347.321 129.819 347.763 130.393 348.334 130.8C348.904 131.203 349.592 131.391 350.399 131.364C351.239 131.337 351.933 131.093 352.481 130.631C353.034 130.164 353.441 129.549 353.7 128.784C353.965 128.014 354.082 127.163 354.052 126.232C354.022 125.312 353.853 124.487 353.545 123.758C353.243 123.023 352.801 122.449 352.219 122.036C351.642 121.617 350.928 121.421 350.076 121.449C349.259 121.476 348.578 121.705 348.035 122.138C347.492 122.565 347.09 123.152 346.83 123.9C346.57 124.641 346.456 125.501 346.488 126.477ZM359.35 132.608L358.925 119.524L360.867 119.461L360.931 121.437L361.067 121.433C361.285 120.778 361.699 120.238 362.311 119.815C362.923 119.391 363.62 119.167 364.404 119.142C364.552 119.137 364.736 119.134 364.958 119.132C365.18 119.131 365.347 119.134 365.461 119.141L365.528 121.186C365.459 121.171 365.302 121.15 365.057 121.124C364.817 121.092 364.564 121.081 364.297 121.089C363.661 121.11 363.097 121.262 362.606 121.545C362.12 121.822 361.74 122.198 361.466 122.673C361.197 123.143 361.072 123.673 361.091 124.263L361.36 132.543L359.35 132.608ZM373.201 132.431C372.02 132.469 370.974 132.222 370.064 131.689C369.16 131.155 368.442 130.391 367.909 129.397C367.382 128.402 367.097 127.229 367.053 125.877C367.009 124.514 367.217 123.317 367.678 122.284C368.145 121.251 368.812 120.439 369.68 119.848C370.553 119.257 371.58 118.942 372.761 118.904C373.943 118.866 374.985 119.113 375.889 119.647C376.799 120.18 377.518 120.947 378.045 121.947C378.578 122.947 378.866 124.129 378.91 125.492C378.954 126.843 378.743 128.033 378.276 129.06C377.815 130.087 377.148 130.896 376.274 131.487C375.407 132.078 374.382 132.393 373.201 132.431ZM373.142 130.625C374.04 130.596 374.77 130.342 375.335 129.863C375.899 129.384 376.308 128.766 376.562 128.007C376.816 127.248 376.929 126.432 376.9 125.557C376.872 124.683 376.706 123.872 376.403 123.126C376.1 122.38 375.652 121.783 375.058 121.336C374.463 120.89 373.717 120.681 372.82 120.71C371.923 120.739 371.192 120.996 370.628 121.48C370.064 121.965 369.655 122.589 369.401 123.354C369.148 124.118 369.035 124.937 369.063 125.812C369.092 126.686 369.257 127.494 369.56 128.235C369.863 128.975 370.311 129.566 370.905 130.007C371.499 130.448 372.245 130.654 373.142 130.625ZM390.261 126.248L390.01 118.514L392.02 118.449L392.445 131.533L390.435 131.598L390.363 129.383L390.227 129.388C389.942 130.062 389.483 130.643 388.851 131.129C388.219 131.61 387.408 131.867 386.42 131.899C385.602 131.926 384.87 131.77 384.222 131.433C383.574 131.09 383.057 130.561 382.67 129.846C382.282 129.126 382.071 128.209 382.035 127.096L381.764 118.782L383.775 118.717L384.04 126.894C384.071 127.848 384.363 128.6 384.915 129.151C385.473 129.701 386.17 129.963 387.004 129.936C387.504 129.92 388.008 129.775 388.517 129.503C389.031 129.23 389.455 128.824 389.79 128.285C390.131 127.745 390.288 127.066 390.261 126.248ZM401.577 136.42C400.606 136.452 399.767 136.354 399.061 136.127C398.354 135.905 397.762 135.601 397.283 135.213C396.81 134.83 396.43 134.416 396.142 133.971L397.707 132.794C397.897 133.027 398.136 133.292 398.424 133.589C398.712 133.893 399.102 134.15 399.592 134.362C400.088 134.579 400.73 134.674 401.52 134.649C402.576 134.614 403.439 134.33 404.11 133.797C404.78 133.263 405.098 132.452 405.062 131.361L404.976 128.704L404.806 128.709C404.666 128.952 404.465 129.255 404.204 129.615C403.948 129.971 403.572 130.293 403.076 130.582C402.585 130.865 401.913 131.02 401.061 131.048C400.005 131.082 399.049 130.863 398.192 130.391C397.341 129.918 396.656 129.213 396.136 128.275C395.623 127.336 395.344 126.186 395.299 124.823C395.256 123.482 395.454 122.308 395.893 121.299C396.331 120.284 396.962 119.49 397.785 118.918C398.608 118.34 399.57 118.033 400.671 117.997C401.523 117.969 402.204 118.089 402.713 118.357C403.227 118.619 403.623 118.924 403.902 119.273C404.186 119.616 404.406 119.899 404.561 120.122L404.765 120.115L404.697 118.037L406.64 117.973L407.077 131.432C407.114 132.557 406.888 133.479 406.4 134.2C405.917 134.926 405.253 135.468 404.406 135.825C403.565 136.188 402.622 136.386 401.577 136.42ZM401.275 129.233C402.082 129.207 402.757 129 403.302 128.613C403.846 128.226 404.252 127.681 404.519 126.979C404.786 126.277 404.904 125.443 404.873 124.477C404.842 123.535 404.673 122.707 404.366 121.995C404.058 121.283 403.62 120.732 403.05 120.341C402.48 119.95 401.786 119.768 400.969 119.795C400.117 119.823 399.414 120.062 398.86 120.512C398.312 120.961 397.908 121.554 397.647 122.291C397.393 123.026 397.28 123.837 397.309 124.723C397.338 125.632 397.506 126.431 397.813 127.12C398.125 127.803 398.569 128.335 399.144 128.714C399.724 129.087 400.435 129.26 401.275 129.233ZM412.499 123.002L412.755 130.872L410.745 130.938L410.178 113.492L412.188 113.427L412.396 119.833L412.567 119.827C412.851 119.142 413.294 118.59 413.894 118.173C414.5 117.749 415.317 117.521 416.345 117.487C417.236 117.458 418.023 117.612 418.705 117.948C419.386 118.278 419.924 118.804 420.317 119.524C420.715 120.239 420.932 121.159 420.969 122.283L421.239 130.597L419.229 130.662L418.963 122.485C418.929 121.445 418.634 120.651 418.076 120.1C417.523 119.544 416.773 119.281 415.824 119.312C415.166 119.334 414.58 119.492 414.066 119.787C413.558 120.082 413.163 120.501 412.879 121.045C412.601 121.588 412.475 122.241 412.499 123.002ZM430.182 117.208L430.237 118.912L423.457 119.132L423.401 117.429L430.182 117.208ZM425.276 114.23L427.286 114.164L427.691 126.635C427.71 127.203 427.806 127.626 427.98 127.905C428.159 128.177 428.381 128.358 428.646 128.446C428.915 128.528 429.198 128.564 429.493 128.555C429.715 128.548 429.896 128.53 430.037 128.503C430.178 128.47 430.291 128.444 430.376 128.424L430.843 130.216C430.709 130.272 430.52 130.329 430.278 130.388C430.035 130.453 429.727 130.491 429.352 130.504C428.784 130.522 428.224 130.418 427.671 130.192C427.123 129.965 426.662 129.608 426.288 129.119C425.92 128.631 425.724 128.006 425.699 127.246L425.276 114.23ZM191.561 166.725L191.31 158.99L193.32 158.925L193.745 172.009L191.735 172.074L191.663 169.859L191.527 169.864C191.242 170.538 190.783 171.119 190.151 171.605C189.518 172.086 188.708 172.343 187.72 172.375C186.902 172.402 186.17 172.246 185.522 171.909C184.874 171.567 184.357 171.038 183.97 170.323C183.582 169.602 183.371 168.685 183.334 167.572L183.064 159.258L185.074 159.193L185.34 167.37C185.371 168.324 185.663 169.077 186.215 169.627C186.773 170.177 187.469 170.439 188.304 170.412C188.804 170.396 189.308 170.251 189.817 169.979C190.331 169.707 190.755 169.301 191.09 168.761C191.431 168.221 191.588 167.542 191.561 166.725ZM197.587 176.796L197.002 158.805L198.944 158.742L199.012 160.82L199.25 160.813C199.391 160.581 199.586 160.284 199.835 159.924C200.091 159.557 200.461 159.227 200.946 158.933C201.436 158.633 202.108 158.469 202.959 158.441C204.061 158.405 205.041 158.649 205.899 159.173C206.758 159.696 207.439 160.456 207.943 161.451C208.447 162.447 208.722 163.631 208.767 165.006C208.812 166.391 208.615 167.6 208.177 168.632C207.738 169.658 207.111 170.463 206.294 171.047C205.477 171.625 204.523 171.931 203.433 171.967C202.593 171.994 201.915 171.877 201.401 171.615C200.886 171.347 200.487 171.039 200.202 170.69C199.918 170.336 199.698 170.042 199.543 169.808L199.372 169.813L199.597 176.73L197.587 176.796ZM199.191 165.283C199.223 166.271 199.396 167.138 199.71 167.884C200.024 168.624 200.467 169.198 201.037 169.606C201.607 170.008 202.295 170.196 203.102 170.17C203.942 170.142 204.636 169.898 205.184 169.437C205.737 168.97 206.144 168.354 206.403 167.59C206.668 166.819 206.785 165.968 206.755 165.037C206.725 164.117 206.556 163.293 206.248 162.564C205.946 161.829 205.504 161.255 204.922 160.842C204.345 160.423 203.631 160.227 202.78 160.255C201.962 160.281 201.281 160.511 200.738 160.943C200.195 161.37 199.793 161.958 199.534 162.705C199.273 163.447 199.159 164.306 199.191 165.283ZM218.791 171.195L218.366 158.111L220.376 158.045L220.801 171.129L218.791 171.195ZM219.317 155.897C218.925 155.91 218.583 155.787 218.29 155.529C218.004 155.272 217.854 154.955 217.842 154.58C217.83 154.206 217.958 153.88 218.228 153.604C218.503 153.328 218.837 153.184 219.229 153.171C219.62 153.158 219.96 153.281 220.247 153.539C220.539 153.796 220.692 154.113 220.704 154.487C220.716 154.862 220.585 155.188 220.309 155.464C220.04 155.74 219.709 155.884 219.317 155.897ZM226.238 163.074L226.494 170.944L224.483 171.01L224.058 157.926L226 157.863L226.067 159.907L226.237 159.901C226.522 159.227 226.97 158.678 227.582 158.255C228.193 157.825 228.993 157.595 229.981 157.563C230.867 157.534 231.648 157.69 232.324 158.032C233.001 158.368 233.535 158.897 233.928 159.617C234.321 160.332 234.535 161.246 234.571 162.359L234.842 170.673L232.831 170.738L232.565 162.561C232.532 161.533 232.239 160.741 231.687 160.185C231.134 159.623 230.392 159.357 229.461 159.387C228.819 159.408 228.25 159.566 227.754 159.861C227.263 160.155 226.881 160.574 226.609 161.117C226.337 161.66 226.213 162.313 226.238 163.074ZM250.918 170.151L245.534 170.326L244.967 152.88L250.589 152.697C252.281 152.642 253.741 152.945 254.967 153.604C256.194 154.258 257.149 155.224 257.833 156.504C258.517 157.778 258.888 159.318 258.947 161.124C259.006 162.941 258.733 164.516 258.128 165.849C257.523 167.176 256.613 168.212 255.398 168.956C254.183 169.695 252.689 170.093 250.918 170.151ZM247.586 168.383L250.72 168.281C252.163 168.234 253.349 167.917 254.279 167.33C255.21 166.742 255.891 165.927 256.323 164.884C256.755 163.841 256.949 162.61 256.902 161.19C256.857 159.782 256.587 158.577 256.094 157.575C255.601 156.568 254.888 155.807 253.956 155.291C253.024 154.77 251.877 154.532 250.514 154.576L247.14 154.686L247.586 168.383ZM267.997 169.868C266.736 169.909 265.64 169.666 264.707 169.14C263.78 168.607 263.054 167.846 262.527 166.857C262.006 165.862 261.723 164.694 261.68 163.354C261.636 162.014 261.842 160.825 262.297 159.787C262.758 158.743 263.419 157.92 264.28 157.318C265.148 156.71 266.172 156.386 267.353 156.348C268.034 156.326 268.711 156.418 269.383 156.623C270.055 156.829 270.671 157.178 271.233 157.671C271.795 158.159 272.251 158.815 272.602 159.639C272.953 160.464 273.148 161.486 273.188 162.707L273.215 163.559L263.13 163.887L263.073 162.149L271.114 161.888C271.09 161.15 270.921 160.496 270.607 159.926C270.299 159.356 269.869 158.912 269.319 158.595C268.774 158.277 268.138 158.13 267.412 158.154C266.611 158.18 265.925 158.401 265.353 158.818C264.786 159.228 264.357 159.754 264.065 160.394C263.773 161.035 263.639 161.716 263.662 162.437L263.7 163.595C263.732 164.584 263.93 165.416 264.293 166.092C264.661 166.762 265.158 167.266 265.783 167.604C266.408 167.936 267.126 168.089 267.938 168.062C268.466 168.045 268.941 167.956 269.362 167.794C269.789 167.627 270.153 167.388 270.456 167.077C270.758 166.76 270.987 166.372 271.143 165.912L273.103 166.394C272.92 167.059 272.595 167.65 272.128 168.165C271.662 168.675 271.078 169.08 270.377 169.382C269.676 169.677 268.883 169.839 267.997 169.868ZM277.907 151.81L278.474 169.255L276.464 169.32L275.897 151.875L277.907 151.81ZM283.911 161.199L284.166 169.07L282.156 169.135L281.589 151.69L283.599 151.625L283.808 158.03L283.978 158.025C284.263 157.339 284.705 156.787 285.306 156.37C285.911 155.947 286.728 155.718 287.756 155.685C288.648 155.656 289.434 155.809 290.116 156.145C290.798 156.476 291.335 157.001 291.728 157.722C292.126 158.436 292.344 159.356 292.38 160.48L292.651 168.794L290.64 168.859L290.374 160.682C290.341 159.643 290.045 158.848 289.487 158.298C288.934 157.741 288.184 157.479 287.236 157.51C286.577 157.531 285.991 157.689 285.477 157.984C284.97 158.28 284.574 158.699 284.29 159.242C284.012 159.786 283.886 160.438 283.911 161.199ZM296.328 168.675L295.903 155.591L297.913 155.525L298.339 168.609L296.328 168.675ZM296.854 153.377C296.462 153.389 296.12 153.267 295.828 153.009C295.541 152.751 295.391 152.435 295.379 152.06C295.367 151.685 295.495 151.36 295.765 151.084C296.04 150.808 296.374 150.664 296.766 150.651C297.158 150.638 297.497 150.761 297.784 151.019C298.077 151.276 298.229 151.592 298.241 151.967C298.253 152.342 298.122 152.668 297.846 152.944C297.577 153.22 297.246 153.364 296.854 153.377ZM304.941 166.007L304.835 166.931C304.76 167.582 304.634 168.28 304.46 169.024C304.291 169.769 304.112 170.471 303.923 171.131C303.734 171.791 303.578 172.316 303.454 172.707L301.92 172.756C301.983 172.391 302.063 171.908 302.163 171.307C302.263 170.707 302.361 170.036 302.456 169.294C302.557 168.557 302.635 167.804 302.69 167.035L302.761 166.078L304.941 166.007ZM317.308 150.529L317.875 167.974L315.763 168.043L315.196 150.598L317.308 150.529ZM323.593 159.909L323.849 167.78L321.838 167.845L321.413 154.761L323.355 154.698L323.422 156.743L323.592 156.737C323.877 156.063 324.325 155.514 324.937 155.09C325.548 154.661 326.348 154.43 327.336 154.398C328.222 154.37 329.003 154.526 329.679 154.868C330.355 155.204 330.89 155.732 331.283 156.453C331.676 157.168 331.89 158.082 331.926 159.195L332.196 167.509L330.186 167.574L329.92 159.397C329.887 158.369 329.594 157.577 329.042 157.02C328.489 156.459 327.747 156.193 326.816 156.223C326.174 156.244 325.605 156.402 325.108 156.696C324.618 156.991 324.236 157.41 323.964 157.953C323.692 158.496 323.568 159.148 323.593 159.909ZM340.819 167.501C339.729 167.537 338.757 167.293 337.905 166.769C337.052 166.24 336.373 165.477 335.869 164.482C335.365 163.48 335.09 162.287 335.045 160.901C335 159.527 335.197 158.327 335.636 157.301C336.074 156.275 336.705 155.472 337.527 154.894C338.35 154.316 339.312 154.009 340.414 153.973C341.266 153.946 341.943 154.066 342.446 154.334C342.955 154.596 343.346 154.901 343.619 155.251C343.897 155.594 344.114 155.877 344.269 156.099L344.439 156.094L344.23 149.654L346.24 149.589L346.807 167.034L344.865 167.097L344.8 165.087L344.561 165.094C344.421 165.338 344.221 165.646 343.96 166.018C343.699 166.385 343.321 166.718 342.825 167.018C342.328 167.313 341.66 167.474 340.819 167.501ZM341.033 165.687C341.84 165.66 342.514 165.428 343.057 164.99C343.6 164.546 344.004 163.944 344.269 163.185C344.534 162.421 344.651 161.544 344.618 160.556C344.587 159.579 344.417 158.729 344.109 158.006C343.801 157.277 343.362 156.717 342.793 156.326C342.223 155.93 341.529 155.745 340.711 155.771C339.859 155.799 339.156 156.041 338.603 156.497C338.055 156.946 337.651 157.548 337.391 158.301C337.137 159.048 337.024 159.882 337.054 160.802C337.085 161.733 337.254 162.575 337.563 163.327C337.877 164.072 338.322 164.661 338.899 165.091C339.481 165.515 340.193 165.714 341.033 165.687ZM350.768 166.905L350.343 153.821L352.353 153.756L352.779 166.84L350.768 166.905ZM351.294 151.607C350.902 151.62 350.56 151.498 350.268 151.24C349.981 150.982 349.831 150.666 349.819 150.291C349.807 149.916 349.935 149.591 350.205 149.315C350.48 149.039 350.814 148.894 351.206 148.881C351.598 148.869 351.937 148.991 352.224 149.249C352.517 149.507 352.669 149.823 352.681 150.198C352.693 150.573 352.562 150.898 352.286 151.174C352.017 151.45 351.686 151.595 351.294 151.607ZM360.321 166.902C359.492 166.929 358.734 166.797 358.048 166.507C357.362 166.21 356.811 165.771 356.394 165.187C355.977 164.598 355.754 163.878 355.727 163.026C355.702 162.277 355.83 161.664 356.11 161.189C356.39 160.708 356.773 160.326 357.258 160.043C357.744 159.76 358.282 159.544 358.874 159.394C359.472 159.238 360.073 159.11 360.678 159.011C361.47 158.883 362.112 158.785 362.604 158.718C363.102 158.645 363.463 158.539 363.686 158.401C363.914 158.263 364.023 158.032 364.013 157.709L364.011 157.641C363.983 156.8 363.732 156.154 363.257 155.704C362.787 155.253 362.09 155.042 361.164 155.073C360.205 155.104 359.459 155.338 358.927 155.776C358.396 156.214 358.027 156.675 357.821 157.16L355.891 156.54C356.206 155.734 356.64 155.1 357.193 154.639C357.752 154.172 358.367 153.839 359.037 153.641C359.713 153.437 360.38 153.324 361.038 153.303C361.459 153.289 361.943 153.325 362.492 153.409C363.046 153.488 363.583 153.672 364.104 153.962C364.631 154.252 365.075 154.701 365.436 155.309C365.796 155.917 365.994 156.74 366.027 157.78L366.308 166.4L364.297 166.465L364.24 164.694L364.138 164.697C364.01 164.985 363.793 165.297 363.486 165.631C363.178 165.965 362.764 166.254 362.243 166.498C361.723 166.742 361.082 166.877 360.321 166.902ZM360.569 165.086C361.364 165.06 362.029 164.882 362.564 164.552C363.105 164.222 363.506 163.805 363.768 163.302C364.036 162.799 364.161 162.274 364.143 161.729L364.084 159.889C364.002 159.994 363.817 160.094 363.531 160.189C363.249 160.277 362.922 160.359 362.549 160.434C362.182 160.503 361.823 160.565 361.473 160.622C361.127 160.673 360.847 160.716 360.633 160.752C360.112 160.837 359.628 160.964 359.178 161.132C358.734 161.294 358.378 161.53 358.11 161.84C357.847 162.144 357.724 162.552 357.74 163.063C357.763 163.761 358.038 164.281 358.567 164.622C359.101 164.957 359.768 165.112 360.569 165.086ZM371.446 166.369C371.026 166.383 370.661 166.244 370.35 165.953C370.039 165.662 369.877 165.306 369.863 164.886C369.85 164.466 369.988 164.1 370.28 163.79C370.571 163.479 370.927 163.317 371.347 163.303C371.767 163.289 372.133 163.428 372.443 163.719C372.754 164.01 372.916 164.366 372.93 164.786C372.939 165.065 372.876 165.322 372.742 165.56C372.613 165.797 372.435 165.991 372.206 166.14C371.984 166.284 371.73 166.36 371.446 166.369Z" fill="black"/>
<path d="M148.233 195.5L146.12 195.568C145.975 194.965 145.739 194.438 145.412 193.988C145.091 193.538 144.703 193.164 144.25 192.866C143.803 192.562 143.309 192.34 142.77 192.198C142.231 192.056 141.672 191.995 141.093 192.014C140.037 192.048 139.088 192.346 138.248 192.908C137.414 193.469 136.761 194.278 136.289 195.334C135.823 196.389 135.615 197.672 135.664 199.183C135.713 200.693 136.004 201.96 136.538 202.983C137.077 204.006 137.781 204.77 138.65 205.276C139.525 205.782 140.491 206.018 141.547 205.984C142.126 205.965 142.68 205.867 143.209 205.691C143.737 205.515 144.215 205.263 144.642 204.937C145.075 204.604 145.437 204.203 145.729 203.733C146.026 203.257 146.227 202.716 146.333 202.11L148.445 202.042C148.315 202.938 148.052 203.746 147.654 204.464C147.257 205.181 146.754 205.797 146.145 206.312C145.537 206.821 144.847 207.215 144.078 207.496C143.314 207.777 142.491 207.931 141.611 207.96C140.123 208.008 138.788 207.688 137.606 206.999C136.424 206.309 135.479 205.306 134.771 203.987C134.063 202.668 133.679 201.089 133.619 199.249C133.56 197.409 133.84 195.808 134.461 194.446C135.082 193.085 135.96 192.022 137.095 191.257C138.23 190.492 139.541 190.086 141.029 190.038C141.909 190.009 142.739 190.11 143.52 190.34C144.306 190.571 145.02 190.923 145.661 191.396C146.301 191.864 146.843 192.444 147.286 193.134C147.729 193.819 148.045 194.608 148.233 195.5ZM153.207 189.881L153.774 207.326L151.764 207.391L151.197 189.946L153.207 189.881ZM157.456 207.206L157.031 194.122L159.041 194.057L159.466 207.141L157.456 207.206ZM157.982 191.908C157.59 191.921 157.248 191.799 156.955 191.541C156.668 191.283 156.519 190.967 156.507 190.592C156.494 190.217 156.623 189.892 156.893 189.616C157.168 189.34 157.502 189.195 157.893 189.183C158.285 189.17 158.625 189.292 158.912 189.55C159.204 189.808 159.357 190.124 159.369 190.499C159.381 190.874 159.249 191.199 158.974 191.475C158.705 191.751 158.374 191.896 157.982 191.908ZM168.472 207.121C167.246 207.161 166.18 206.906 165.275 206.355C164.371 205.805 163.663 205.029 163.153 204.028C162.643 203.027 162.367 201.873 162.324 200.567C162.281 199.238 162.487 198.058 162.943 197.025C163.404 195.987 164.065 195.167 164.926 194.565C165.793 193.957 166.818 193.634 167.999 193.595C168.919 193.565 169.753 193.709 170.503 194.025C171.252 194.342 171.872 194.8 172.364 195.398C172.855 195.996 173.171 196.702 173.311 197.516L171.3 197.581C171.128 196.99 170.77 196.473 170.227 196.03C169.689 195.581 168.977 195.371 168.091 195.4C167.308 195.425 166.627 195.652 166.05 196.08C165.478 196.502 165.04 197.088 164.734 197.837C164.434 198.58 164.3 199.446 164.333 200.434C164.365 201.445 164.553 202.32 164.895 203.059C165.243 203.798 165.717 204.365 166.315 204.761C166.919 205.156 167.619 205.341 168.414 205.315C168.936 205.298 169.407 205.192 169.827 204.996C170.247 204.801 170.6 204.528 170.884 204.178C171.168 203.827 171.365 203.411 171.474 202.93L173.485 202.865C173.396 203.641 173.138 204.346 172.709 204.979C172.286 205.607 171.714 206.115 170.993 206.502C170.278 206.883 169.438 207.09 168.472 207.121ZM178.266 201.755L178.151 199.268L178.56 199.255L184.095 193.243L186.583 193.162L180.684 199.527L180.514 199.533L178.266 201.755ZM176.547 206.586L175.98 189.14L177.991 189.075L178.558 206.52L176.547 206.586ZM184.861 206.315L179.54 200.008L180.925 198.564L187.417 206.232L184.861 206.315ZM201.607 192.673L201.662 194.377L194.881 194.597L194.826 192.894L201.607 192.673ZM196.7 189.695L198.711 189.63L199.116 202.1C199.134 202.668 199.231 203.091 199.405 203.37C199.584 203.643 199.806 203.823 200.07 203.911C200.34 203.993 200.623 204.03 200.918 204.02C201.139 204.013 201.321 203.995 201.462 203.968C201.603 203.935 201.716 203.909 201.801 203.889L202.268 205.682C202.133 205.737 201.945 205.794 201.702 205.853C201.46 205.918 201.151 205.957 200.777 205.969C200.209 205.987 199.648 205.883 199.095 205.657C198.548 205.43 198.087 205.073 197.713 204.585C197.345 204.096 197.148 203.472 197.123 202.711L196.7 189.695ZM210.239 205.764C209.058 205.802 208.013 205.554 207.103 205.021C206.199 204.488 205.48 203.724 204.948 202.729C204.421 201.734 204.135 200.561 204.091 199.21C204.047 197.847 204.256 196.649 204.717 195.617C205.183 194.584 205.85 193.772 206.718 193.181C207.591 192.59 208.619 192.275 209.8 192.237C210.981 192.198 212.024 192.446 212.928 192.979C213.838 193.512 214.556 194.279 215.083 195.28C215.616 196.28 215.905 197.461 215.949 198.824C215.993 200.176 215.781 201.365 215.314 202.392C214.853 203.419 214.186 204.228 213.313 204.819C212.445 205.41 211.421 205.725 210.239 205.764ZM210.181 203.958C211.078 203.928 211.809 203.674 212.373 203.196C212.937 202.717 213.346 202.098 213.6 201.339C213.854 200.581 213.967 199.764 213.939 198.89C213.91 198.015 213.745 197.205 213.442 196.459C213.139 195.712 212.69 195.116 212.096 194.669C211.502 194.222 210.756 194.013 209.858 194.042C208.961 194.072 208.231 194.328 207.666 194.813C207.102 195.297 206.693 195.922 206.44 196.686C206.186 197.45 206.073 198.27 206.102 199.144C206.13 200.019 206.296 200.827 206.598 201.567C206.901 202.308 207.349 202.898 207.944 203.34C208.538 203.781 209.284 203.987 210.181 203.958ZM234.912 194.524L233.123 195.094C233 194.797 232.823 194.51 232.592 194.233C232.367 193.95 232.064 193.721 231.683 193.546C231.302 193.371 230.819 193.293 230.234 193.312C229.433 193.338 228.772 193.544 228.25 193.931C227.734 194.311 227.485 194.783 227.503 195.345C227.519 195.845 227.714 196.233 228.087 196.511C228.46 196.789 229.035 197.012 229.814 197.18L231.772 197.594C232.951 197.84 233.837 198.246 234.429 198.812C235.021 199.373 235.333 200.11 235.362 201.024C235.387 201.774 235.193 202.451 234.78 203.056C234.373 203.66 233.792 204.145 233.037 204.511C232.281 204.877 231.395 205.076 230.379 205.109C229.044 205.152 227.93 204.899 227.037 204.348C226.143 203.797 225.562 202.969 225.293 201.863L227.186 201.324C227.39 202.023 227.751 202.54 228.268 202.875C228.791 203.211 229.464 203.365 230.287 203.338C231.224 203.308 231.961 203.085 232.499 202.669C233.043 202.248 233.305 201.756 233.287 201.194C233.272 200.74 233.101 200.365 232.773 200.068C232.445 199.766 231.949 199.549 231.285 199.417L229.088 198.977C227.88 198.732 226.986 198.321 226.404 197.743C225.828 197.159 225.526 196.415 225.496 195.512C225.472 194.774 225.658 194.114 226.054 193.533C226.456 192.952 227.012 192.487 227.723 192.14C228.439 191.793 229.258 191.604 230.178 191.574C231.472 191.532 232.498 191.783 233.255 192.327C234.017 192.871 234.57 193.603 234.912 194.524ZM244.001 204.666C242.741 204.707 241.644 204.464 240.712 203.937C239.785 203.405 239.058 202.644 238.531 201.655C238.01 200.66 237.728 199.492 237.684 198.152C237.641 196.812 237.846 195.623 238.302 194.585C238.762 193.541 239.423 192.718 240.285 192.115C241.152 191.507 242.176 191.184 243.357 191.146C244.039 191.124 244.715 191.215 245.387 191.421C246.059 191.627 246.676 191.976 247.238 192.469C247.799 192.957 248.255 193.613 248.606 194.437C248.957 195.262 249.152 196.284 249.192 197.505L249.22 198.357L239.134 198.685L239.078 196.947L247.119 196.686C247.095 195.947 246.926 195.293 246.612 194.724C246.303 194.154 245.874 193.71 245.323 193.393C244.779 193.075 244.143 192.928 243.416 192.952C242.615 192.978 241.929 193.199 241.357 193.616C240.79 194.026 240.361 194.552 240.069 195.192C239.778 195.833 239.643 196.514 239.667 197.235L239.705 198.393C239.737 199.381 239.934 200.214 240.297 200.89C240.666 201.56 241.163 202.064 241.788 202.402C242.412 202.734 243.131 202.887 243.943 202.86C244.471 202.843 244.946 202.754 245.367 202.592C245.793 202.425 246.158 202.186 246.46 201.875C246.763 201.558 246.992 201.169 247.147 200.71L249.107 201.192C248.924 201.857 248.599 202.447 248.133 202.963C247.666 203.473 247.083 203.878 246.382 204.179C245.681 204.475 244.887 204.637 244.001 204.666ZM257.963 204.212C256.702 204.253 255.606 204.01 254.673 203.484C253.746 202.951 253.02 202.19 252.493 201.201C251.972 200.206 251.689 199.038 251.646 197.698C251.602 196.358 251.808 195.169 252.263 194.131C252.724 193.087 253.385 192.264 254.246 191.662C255.113 191.054 256.138 190.73 257.319 190.692C258 190.67 258.677 190.762 259.349 190.967C260.02 191.173 260.637 191.522 261.199 192.016C261.761 192.503 262.217 193.159 262.568 193.984C262.918 194.808 263.114 195.83 263.153 197.051L263.181 197.903L253.096 198.231L253.039 196.493L261.08 196.232C261.056 195.494 260.887 194.84 260.573 194.27C260.265 193.7 259.835 193.257 259.285 192.939C258.74 192.621 258.104 192.474 257.377 192.498C256.577 192.524 255.89 192.745 255.318 193.162C254.752 193.572 254.323 194.098 254.031 194.739C253.739 195.379 253.605 196.06 253.628 196.781L253.666 197.94C253.698 198.928 253.896 199.76 254.259 200.436C254.627 201.106 255.124 201.61 255.749 201.948C256.374 202.28 257.092 202.433 257.904 202.407C258.432 202.389 258.907 202.3 259.328 202.139C259.755 201.971 260.119 201.732 260.422 201.421C260.724 201.104 260.953 200.716 261.109 200.256L263.069 200.738C262.886 201.403 262.561 201.994 262.094 202.509C261.628 203.019 261.044 203.424 260.343 203.726C259.642 204.021 258.849 204.184 257.963 204.212ZM273.176 203.445L272.751 190.361L274.693 190.298L274.759 192.342L274.93 192.337C275.18 191.629 275.602 191.073 276.197 190.667C276.792 190.255 277.515 190.036 278.367 190.008C279.23 189.98 279.955 190.152 280.541 190.526C281.133 190.893 281.602 191.421 281.949 192.109L282.085 192.104C282.398 191.418 282.883 190.865 283.54 190.445C284.197 190.02 284.994 189.793 285.931 189.762C287.101 189.724 288.07 190.059 288.838 190.768C289.605 191.47 290.014 192.591 290.064 194.13L290.349 202.887L288.338 202.952L288.054 194.195C288.023 193.23 287.736 192.549 287.194 192.151C286.653 191.754 286.024 191.567 285.309 191.59C284.389 191.62 283.685 191.921 283.198 192.494C282.71 193.062 282.48 193.768 282.508 194.615L282.785 203.133L280.74 203.199L280.449 194.238C280.425 193.494 280.164 192.903 279.667 192.464C279.169 192.02 278.54 191.81 277.779 191.835C277.256 191.852 276.772 192.007 276.327 192.3C275.887 192.593 275.537 192.991 275.274 193.494C275.018 193.991 274.9 194.56 274.921 195.202L275.186 203.38L273.176 203.445ZM299.349 202.867C298.167 202.906 297.122 202.658 296.212 202.125C295.308 201.592 294.59 200.828 294.057 199.833C293.53 198.838 293.245 197.665 293.201 196.313C293.156 194.951 293.365 193.753 293.826 192.72C294.292 191.688 294.96 190.876 295.827 190.285C296.701 189.693 297.728 189.379 298.909 189.34C300.09 189.302 301.133 189.549 302.037 190.083C302.947 190.616 303.665 191.383 304.192 192.383C304.725 193.384 305.014 194.565 305.058 195.928C305.102 197.28 304.891 198.469 304.424 199.496C303.962 200.523 303.295 201.332 302.422 201.923C301.554 202.514 300.53 202.829 299.349 202.867ZM299.29 201.061C300.187 201.032 300.918 200.778 301.482 200.299C302.047 199.821 302.456 199.202 302.71 198.443C302.963 197.685 303.076 196.868 303.048 195.993C303.019 195.119 302.854 194.309 302.551 193.562C302.248 192.816 301.8 192.219 301.205 191.773C300.611 191.326 299.865 191.117 298.968 191.146C298.07 191.175 297.34 191.432 296.776 191.917C296.212 192.401 295.803 193.026 295.549 193.79C295.295 194.554 295.183 195.374 295.211 196.248C295.239 197.123 295.405 197.93 295.708 198.671C296.01 199.411 296.459 200.002 297.053 200.443C297.647 200.885 298.393 201.091 299.29 201.061ZM308.337 202.302L307.912 189.218L309.854 189.155L309.918 191.131L310.055 191.127C310.272 190.472 310.687 189.932 311.298 189.509C311.91 189.085 312.607 188.861 313.391 188.835C313.539 188.831 313.723 188.828 313.945 188.826C314.167 188.824 314.334 188.828 314.448 188.835L314.515 190.88C314.446 190.865 314.289 190.844 314.044 190.818C313.804 190.786 313.551 190.774 313.284 190.783C312.648 190.804 312.084 190.956 311.593 191.239C311.108 191.516 310.728 191.892 310.453 192.367C310.184 192.837 310.059 193.367 310.078 193.957L310.347 202.237L308.337 202.302ZM322.359 202.119C321.098 202.16 320.001 201.917 319.069 201.391C318.142 200.858 317.415 200.097 316.888 199.108C316.367 198.113 316.085 196.945 316.041 195.605C315.998 194.265 316.204 193.076 316.659 192.038C317.119 190.994 317.78 190.171 318.642 189.569C319.509 188.961 320.533 188.637 321.714 188.599C322.396 188.577 323.073 188.669 323.744 188.874C324.416 189.08 325.033 189.429 325.595 189.923C326.156 190.41 326.612 191.066 326.963 191.891C327.314 192.715 327.509 193.737 327.549 194.958L327.577 195.81L317.491 196.138L317.435 194.4L325.476 194.139C325.452 193.401 325.283 192.747 324.969 192.177C324.66 191.607 324.231 191.164 323.68 190.846C323.136 190.528 322.5 190.381 321.773 190.405C320.972 190.431 320.286 190.652 319.714 191.069C319.148 191.479 318.718 192.005 318.427 192.645C318.135 193.286 318 193.967 318.024 194.688L318.062 195.847C318.094 196.835 318.291 197.667 318.654 198.343C319.023 199.013 319.52 199.517 320.145 199.855C320.769 200.187 321.488 200.34 322.3 200.313C322.828 200.296 323.303 200.207 323.724 200.046C324.15 199.878 324.515 199.639 324.817 199.328C325.12 199.011 325.349 198.623 325.504 198.163L327.464 198.645C327.281 199.31 326.956 199.901 326.49 200.416C326.023 200.926 325.44 201.331 324.739 201.633C324.038 201.928 323.244 202.091 322.359 202.119ZM342.896 201.452C341.715 201.49 340.669 201.243 339.759 200.71C338.855 200.176 338.137 199.412 337.604 198.418C337.077 197.423 336.792 196.25 336.748 194.898C336.704 193.535 336.912 192.337 337.373 191.305C337.84 190.272 338.507 189.46 339.375 188.869C340.248 188.278 341.275 187.963 342.456 187.925C343.638 187.886 344.68 188.134 345.584 188.667C346.494 189.201 347.213 189.967 347.74 190.968C348.273 191.968 348.561 193.15 348.605 194.513C348.649 195.864 348.438 197.054 347.971 198.081C347.51 199.108 346.842 199.917 345.969 200.508C345.102 201.099 344.077 201.413 342.896 201.452ZM342.837 199.646C343.735 199.617 344.465 199.363 345.03 198.884C345.594 198.405 346.003 197.786 346.257 197.028C346.511 196.269 346.623 195.453 346.595 194.578C346.567 193.704 346.401 192.893 346.098 192.147C345.795 191.401 345.347 190.804 344.752 190.357C344.158 189.91 343.412 189.702 342.515 189.731C341.618 189.76 340.887 190.017 340.323 190.501C339.759 190.986 339.35 191.61 339.096 192.374C338.843 193.139 338.73 193.958 338.758 194.833C338.787 195.707 338.952 196.515 339.255 197.255C339.558 197.996 340.006 198.587 340.6 199.028C341.194 199.469 341.94 199.675 342.837 199.646ZM351.884 200.887L351.459 187.803L353.401 187.74L353.466 189.716L353.602 189.711C353.819 189.056 354.234 188.517 354.845 188.094C355.457 187.67 356.155 187.446 356.938 187.42C357.086 187.415 357.271 187.412 357.492 187.411C357.714 187.409 357.882 187.412 357.996 187.42L358.062 189.464C357.993 189.449 357.836 189.429 357.591 189.403C357.351 189.371 357.098 189.359 356.831 189.368C356.195 189.388 355.632 189.54 355.14 189.823C354.655 190.101 354.275 190.477 354 190.952C353.731 191.421 353.606 191.951 353.626 192.542L353.895 200.821L351.884 200.887ZM372.957 187.104L373.012 188.808L365.959 189.037L365.904 187.333L372.957 187.104ZM368.442 200.349L367.958 185.459C367.933 184.709 368.089 184.079 368.425 183.568C368.761 183.056 369.206 182.667 369.76 182.399C370.314 182.13 370.903 181.986 371.528 181.966C372.022 181.95 372.427 181.977 372.742 182.046C373.056 182.115 373.292 182.182 373.447 182.245L372.924 184.001C372.821 183.97 372.678 183.933 372.494 183.887C372.317 183.842 372.083 183.824 371.793 183.833C371.129 183.855 370.655 184.038 370.37 184.383C370.091 184.727 369.963 185.223 369.984 185.87L370.452 200.283L368.442 200.349ZM380.985 200.214C379.804 200.252 378.759 200.005 377.849 199.472C376.944 198.938 376.226 198.174 375.694 197.18C375.167 196.185 374.881 195.012 374.837 193.66C374.793 192.297 375.001 191.099 375.462 190.067C375.929 189.034 376.596 188.222 377.464 187.631C378.337 187.04 379.364 186.725 380.546 186.687C381.727 186.648 382.769 186.896 383.674 187.429C384.583 187.963 385.302 188.729 385.829 189.73C386.362 190.73 386.65 191.912 386.695 193.275C386.739 194.626 386.527 195.816 386.06 196.843C385.599 197.87 384.932 198.679 384.058 199.27C383.191 199.861 382.166 200.175 380.985 200.214ZM380.927 198.408C381.824 198.379 382.555 198.125 383.119 197.646C383.683 197.167 384.092 196.548 384.346 195.79C384.6 195.031 384.713 194.215 384.684 193.34C384.656 192.466 384.49 191.655 384.187 190.909C383.885 190.163 383.436 189.566 382.842 189.119C382.247 188.672 381.502 188.464 380.604 188.493C379.707 188.522 378.976 188.779 378.412 189.263C377.848 189.748 377.439 190.372 377.185 191.136C376.932 191.901 376.819 192.72 376.848 193.595C376.876 194.469 377.042 195.277 377.344 196.017C377.647 196.758 378.095 197.349 378.689 197.79C379.284 198.231 380.029 198.437 380.927 198.408ZM391.417 182.138L391.984 199.583L389.974 199.649L389.407 182.203L391.417 182.138ZM397.109 181.953L397.676 199.398L395.666 199.464L395.099 182.018L397.109 181.953ZM406.683 199.379C405.501 199.417 404.456 199.17 403.546 198.636C402.642 198.103 401.923 197.339 401.391 196.344C400.864 195.35 400.579 194.176 400.535 192.825C400.49 191.462 400.699 190.264 401.16 189.232C401.626 188.199 402.294 187.387 403.161 186.796C404.034 186.205 405.062 185.89 406.243 185.852C407.424 185.813 408.467 186.061 409.371 186.594C410.281 187.127 410.999 187.894 411.526 188.895C412.059 189.895 412.348 191.077 412.392 192.439C412.436 193.791 412.224 194.98 411.758 196.007C411.296 197.034 410.629 197.843 409.756 198.435C408.888 199.026 407.864 199.34 406.683 199.379ZM406.624 197.573C407.521 197.544 408.252 197.29 408.816 196.811C409.38 196.332 409.79 195.713 410.043 194.955C410.297 194.196 410.41 193.379 410.382 192.505C410.353 191.63 410.188 190.82 409.885 190.074C409.582 189.327 409.133 188.731 408.539 188.284C407.945 187.837 407.199 187.628 406.302 187.658C405.404 187.687 404.674 187.944 404.11 188.428C403.545 188.912 403.137 189.537 402.883 190.301C402.629 191.066 402.516 191.885 402.545 192.76C402.573 193.634 402.739 194.442 403.041 195.182C403.344 195.923 403.793 196.514 404.387 196.955C404.981 197.396 405.727 197.602 406.624 197.573ZM418.19 198.732L413.779 185.777L415.891 185.709L419.045 195.634L419.181 195.63L421.649 185.521L423.796 185.452L426.88 195.345L427.017 195.341L429.52 185.266L431.633 185.197L428.072 198.411L426.095 198.475L422.906 188.516L422.702 188.523L420.167 198.667L418.19 198.732ZM150.297 228.359L150.353 230.063L143.572 230.283L143.517 228.579L150.297 228.359ZM145.391 225.38L147.401 225.315L147.807 237.786C147.825 238.354 147.921 238.777 148.095 239.056C148.275 239.328 148.497 239.509 148.761 239.597C149.031 239.679 149.313 239.715 149.609 239.706C149.83 239.698 150.012 239.681 150.153 239.654C150.294 239.621 150.407 239.594 150.491 239.575L150.959 241.367C150.824 241.423 150.636 241.48 150.393 241.539C150.151 241.604 149.842 241.642 149.467 241.654C148.9 241.673 148.339 241.569 147.786 241.342C147.239 241.116 146.778 240.758 146.404 240.27C146.035 239.782 145.839 239.157 145.814 238.396L145.391 225.38ZM155.782 233.399L156.038 241.27L154.028 241.336L153.461 223.89L155.471 223.825L155.679 230.231L155.849 230.225C156.134 229.539 156.577 228.988 157.177 228.57C157.783 228.147 158.6 227.919 159.628 227.885C160.519 227.856 161.306 228.01 161.988 228.346C162.669 228.676 163.206 229.201 163.599 229.922C163.998 230.637 164.215 231.556 164.252 232.681L164.522 240.995L162.512 241.06L162.246 232.882C162.212 231.843 161.916 231.048 161.358 230.498C160.806 229.942 160.056 229.679 159.107 229.71C158.448 229.731 157.862 229.89 157.349 230.185C156.841 230.48 156.446 230.899 156.162 231.443C155.884 231.986 155.757 232.638 155.782 233.399ZM173.694 240.969C172.434 241.01 171.337 240.767 170.405 240.241C169.478 239.708 168.751 238.947 168.224 237.958C167.703 236.963 167.421 235.795 167.377 234.455C167.334 233.115 167.539 231.926 167.995 230.888C168.455 229.844 169.116 229.021 169.978 228.419C170.845 227.811 171.869 227.487 173.05 227.449C173.732 227.427 174.408 227.519 175.08 227.724C175.752 227.93 176.369 228.279 176.931 228.772C177.492 229.26 177.948 229.916 178.299 230.74C178.65 231.565 178.845 232.587 178.885 233.808L178.913 234.66L168.827 234.988L168.771 233.25L176.812 232.989C176.788 232.251 176.619 231.597 176.305 231.027C175.996 230.457 175.567 230.013 175.016 229.696C174.472 229.378 173.836 229.231 173.109 229.255C172.308 229.281 171.622 229.502 171.05 229.919C170.483 230.329 170.054 230.855 169.762 231.495C169.471 232.136 169.336 232.817 169.36 233.538L169.397 234.696C169.43 235.685 169.627 236.517 169.99 237.193C170.359 237.863 170.856 238.367 171.481 238.705C172.105 239.037 172.824 239.19 173.636 239.163C174.164 239.146 174.639 239.057 175.06 238.895C175.486 238.728 175.851 238.489 176.153 238.178C176.456 237.861 176.685 237.473 176.84 237.013L178.8 237.495C178.617 238.16 178.292 238.751 177.826 239.266C177.359 239.776 176.776 240.181 176.075 240.483C175.374 240.778 174.58 240.94 173.694 240.969ZM189.067 245.108L188.482 227.118L190.425 227.055L190.492 229.133L190.731 229.125C190.871 228.894 191.066 228.597 191.316 228.237C191.571 227.87 191.941 227.54 192.426 227.246C192.917 226.945 193.588 226.781 194.44 226.754C195.541 226.718 196.521 226.962 197.38 227.485C198.238 228.009 198.919 228.768 199.424 229.764C199.928 230.759 200.202 231.944 200.247 233.319C200.292 234.704 200.095 235.913 199.657 236.945C199.218 237.971 198.591 238.776 197.774 239.359C196.957 239.937 196.004 240.244 194.913 240.28C194.073 240.307 193.395 240.19 192.881 239.928C192.366 239.66 191.967 239.352 191.683 239.003C191.398 238.649 191.178 238.354 191.023 238.121L190.853 238.126L191.077 245.043L189.067 245.108ZM190.671 233.596C190.703 234.584 190.877 235.451 191.191 236.197C191.505 236.937 191.947 237.511 192.517 237.919C193.087 238.321 193.776 238.509 194.582 238.483C195.423 238.455 196.117 238.211 196.664 237.75C197.218 237.283 197.624 236.667 197.884 235.902C198.148 235.132 198.266 234.281 198.235 233.35C198.206 232.43 198.037 231.605 197.729 230.876C197.426 230.141 196.984 229.567 196.402 229.154C195.826 228.735 195.112 228.54 194.26 228.567C193.442 228.594 192.762 228.824 192.219 229.256C191.675 229.683 191.274 230.27 191.014 231.018C190.754 231.76 190.64 232.619 190.671 233.596ZM207.385 239.908C206.556 239.935 205.799 239.804 205.113 239.513C204.426 239.217 203.875 238.777 203.458 238.194C203.041 237.605 202.819 236.885 202.791 236.033C202.767 235.283 202.894 234.671 203.175 234.196C203.455 233.715 203.837 233.333 204.323 233.05C204.808 232.767 205.347 232.55 205.939 232.4C206.536 232.244 207.138 232.117 207.743 232.018C208.534 231.889 209.176 231.792 209.669 231.725C210.167 231.652 210.527 231.546 210.75 231.408C210.979 231.27 211.088 231.039 211.077 230.715L211.075 230.647C211.048 229.807 210.796 229.161 210.321 228.71C209.852 228.26 209.154 228.049 208.229 228.079C207.269 228.11 206.523 228.345 205.992 228.783C205.46 229.221 205.092 229.682 204.886 230.166L202.955 229.547C203.27 228.741 203.704 228.107 204.258 227.646C204.817 227.178 205.431 226.846 206.101 226.648C206.777 226.444 207.444 226.331 208.103 226.31C208.523 226.296 209.007 226.331 209.556 226.416C210.11 226.495 210.647 226.679 211.169 226.969C211.695 227.259 212.139 227.708 212.5 228.316C212.861 228.924 213.058 229.747 213.092 230.786L213.372 239.407L211.362 239.472L211.304 237.7L211.202 237.704C211.075 237.992 210.858 238.303 210.55 238.637C210.243 238.971 209.828 239.26 209.308 239.505C208.787 239.749 208.146 239.884 207.385 239.908ZM207.633 238.093C208.428 238.067 209.093 237.889 209.628 237.559C210.169 237.228 210.57 236.812 210.833 236.309C211.1 235.805 211.225 235.281 211.208 234.736L211.148 232.896C211.066 233.001 210.882 233.101 210.595 233.195C210.314 233.284 209.986 233.366 209.614 233.44C209.246 233.509 208.887 233.572 208.537 233.629C208.192 233.68 207.912 233.723 207.697 233.759C207.177 233.844 206.692 233.97 206.243 234.138C205.799 234.301 205.443 234.537 205.174 234.847C204.911 235.151 204.788 235.559 204.805 236.07C204.827 236.768 205.103 237.288 205.631 237.629C206.165 237.964 206.832 238.119 207.633 238.093ZM222.306 226.019L222.362 227.722L215.581 227.943L215.526 226.239L222.306 226.019ZM217.4 223.04L219.41 222.975L219.816 235.445C219.834 236.013 219.93 236.436 220.104 236.715C220.284 236.988 220.505 237.168 220.77 237.256C221.04 237.338 221.322 237.375 221.618 237.365C221.839 237.358 222.02 237.341 222.162 237.313C222.303 237.28 222.416 237.254 222.5 237.234L222.968 239.027C222.833 239.082 222.645 239.139 222.402 239.199C222.16 239.263 221.851 239.302 221.476 239.314C220.908 239.332 220.348 239.228 219.795 239.002C219.247 238.775 218.787 238.418 218.413 237.93C218.044 237.441 217.848 236.817 217.823 236.056L217.4 223.04ZM227.791 231.059L228.047 238.93L226.036 238.995L225.469 221.55L227.48 221.484L227.688 227.89L227.858 227.885C228.143 227.199 228.586 226.647 229.186 226.23C229.792 225.807 230.609 225.578 231.637 225.545C232.528 225.516 233.315 225.669 233.997 226.005C234.678 226.336 235.215 226.861 235.608 227.582C236.007 228.296 236.224 229.216 236.261 230.34L236.531 238.654L234.521 238.719L234.255 230.542C234.221 229.503 233.925 228.708 233.367 228.158C232.815 227.601 232.064 227.339 231.116 227.369C230.457 227.391 229.871 227.549 229.358 227.844C228.85 228.139 228.454 228.559 228.171 229.102C227.893 229.646 227.766 230.298 227.791 231.059ZM252.22 225.046L252.275 226.75L245.495 226.97L245.44 225.267L252.22 225.046ZM247.314 222.068L249.324 222.002L249.73 234.473C249.748 235.041 249.844 235.464 250.018 235.743C250.197 236.016 250.419 236.196 250.684 236.284C250.954 236.366 251.236 236.402 251.531 236.393C251.753 236.386 251.934 236.368 252.076 236.341C252.217 236.308 252.329 236.282 252.414 236.262L252.882 238.054C252.747 238.11 252.558 238.167 252.316 238.226C252.074 238.291 251.765 238.329 251.39 238.342C250.822 238.36 250.262 238.256 249.709 238.03C249.161 237.803 248.701 237.446 248.327 236.957C247.958 236.469 247.762 235.845 247.737 235.084L247.314 222.068ZM260.853 238.136C259.672 238.175 258.626 237.927 257.716 237.394C256.812 236.861 256.094 236.097 255.561 235.102C255.034 234.107 254.749 232.934 254.705 231.583C254.661 230.22 254.869 229.022 255.33 227.989C255.797 226.957 256.464 226.145 257.332 225.554C258.205 224.963 259.232 224.648 260.413 224.609C261.595 224.571 262.637 224.819 263.541 225.352C264.451 225.885 265.17 226.652 265.697 227.652C266.23 228.653 266.518 229.834 266.562 231.197C266.606 232.549 266.395 233.738 265.928 234.765C265.467 235.792 264.799 236.601 263.926 237.192C263.059 237.783 262.034 238.098 260.853 238.136ZM260.794 236.331C261.692 236.301 262.422 236.047 262.987 235.569C263.551 235.09 263.96 234.471 264.214 233.712C264.468 232.954 264.581 232.137 264.552 231.263C264.524 230.388 264.358 229.578 264.055 228.831C263.752 228.085 263.304 227.489 262.709 227.042C262.115 226.595 261.369 226.386 260.472 226.415C259.575 226.444 258.844 226.701 258.28 227.186C257.716 227.67 257.307 228.295 257.053 229.059C256.8 229.823 256.687 230.643 256.715 231.517C256.744 232.392 256.909 233.199 257.212 233.94C257.515 234.681 257.963 235.271 258.557 235.713C259.151 236.154 259.897 236.36 260.794 236.331ZM285.526 226.897L283.736 227.467C283.613 227.17 283.436 226.883 283.205 226.606C282.98 226.323 282.677 226.094 282.296 225.919C281.915 225.744 281.432 225.666 280.848 225.685C280.047 225.711 279.386 225.917 278.864 226.304C278.347 226.684 278.098 227.156 278.117 227.718C278.133 228.218 278.327 228.606 278.7 228.884C279.073 229.162 279.649 229.385 280.427 229.553L282.385 229.967C283.564 230.213 284.45 230.619 285.043 231.185C285.635 231.746 285.946 232.483 285.976 233.397C286 234.147 285.806 234.824 285.394 235.429C284.987 236.033 284.406 236.518 283.65 236.884C282.895 237.249 282.009 237.449 280.992 237.482C279.658 237.525 278.544 237.271 277.65 236.721C276.757 236.17 276.176 235.342 275.907 234.236L277.799 233.697C278.004 234.395 278.365 234.912 278.882 235.248C279.404 235.584 280.077 235.738 280.901 235.711C281.838 235.681 282.575 235.458 283.113 235.042C283.656 234.621 283.919 234.129 283.901 233.567C283.886 233.113 283.715 232.737 283.387 232.441C283.058 232.139 282.562 231.922 281.899 231.79L279.701 231.35C278.494 231.105 277.599 230.694 277.018 230.116C276.442 229.532 276.139 228.788 276.11 227.885C276.086 227.147 276.272 226.487 276.668 225.906C277.07 225.324 277.626 224.86 278.337 224.513C279.053 224.166 279.871 223.977 280.791 223.947C282.086 223.905 283.112 224.156 283.868 224.7C284.631 225.244 285.183 225.976 285.526 226.897ZM294.615 237.039C293.354 237.08 292.258 236.837 291.325 236.31C290.398 235.778 289.672 235.017 289.145 234.028C288.624 233.033 288.341 231.865 288.298 230.525C288.254 229.185 288.46 227.996 288.915 226.958C289.376 225.914 290.037 225.091 290.898 224.488C291.766 223.88 292.79 223.557 293.971 223.519C294.652 223.497 295.329 223.588 296.001 223.794C296.673 223.999 297.289 224.349 297.851 224.842C298.413 225.33 298.869 225.986 299.22 226.81C299.571 227.634 299.766 228.657 299.806 229.878L299.833 230.73L289.748 231.058L289.691 229.32L297.732 229.059C297.708 228.32 297.539 227.666 297.225 227.097C296.917 226.527 296.487 226.083 295.937 225.766C295.392 225.448 294.756 225.301 294.03 225.325C293.229 225.351 292.542 225.572 291.97 225.988C291.404 226.399 290.975 226.925 290.683 227.565C290.391 228.206 290.257 228.887 290.28 229.608L290.318 230.766C290.35 231.754 290.548 232.586 290.911 233.262C291.279 233.933 291.776 234.437 292.401 234.775C293.026 235.107 293.744 235.26 294.556 235.233C295.084 235.216 295.559 235.127 295.98 234.965C296.407 234.798 296.771 234.559 297.074 234.247C297.376 233.931 297.605 233.542 297.761 233.082L299.721 233.565C299.538 234.23 299.213 234.82 298.746 235.336C298.28 235.845 297.696 236.251 296.995 236.552C296.294 236.848 295.501 237.01 294.615 237.039ZM308.576 236.585C307.316 236.626 306.219 236.383 305.287 235.857C304.36 235.324 303.633 234.563 303.106 233.574C302.585 232.579 302.303 231.411 302.259 230.071C302.216 228.731 302.421 227.542 302.877 226.504C303.337 225.46 303.998 224.637 304.86 224.035C305.727 223.427 306.751 223.103 307.932 223.065C308.614 223.043 309.29 223.135 309.962 223.34C310.634 223.546 311.251 223.895 311.813 224.388C312.374 224.876 312.83 225.532 313.181 226.356C313.532 227.181 313.727 228.203 313.767 229.424L313.795 230.276L303.709 230.604L303.653 228.866L311.694 228.605C311.67 227.867 311.501 227.213 311.187 226.643C310.878 226.073 310.449 225.629 309.898 225.312C309.354 224.994 308.718 224.847 307.991 224.871C307.19 224.897 306.504 225.118 305.932 225.535C305.365 225.945 304.936 226.471 304.644 227.111C304.353 227.752 304.218 228.433 304.242 229.154L304.279 230.312C304.312 231.301 304.509 232.133 304.872 232.809C305.241 233.479 305.737 233.983 306.362 234.321C306.987 234.653 307.706 234.806 308.518 234.779C309.046 234.762 309.52 234.673 309.942 234.511C310.368 234.344 310.733 234.105 311.035 233.794C311.338 233.477 311.567 233.089 311.722 232.629L313.682 233.111C313.499 233.776 313.174 234.367 312.708 234.882C312.241 235.392 311.657 235.797 310.957 236.099C310.256 236.394 309.462 236.556 308.576 236.585ZM323.79 235.818L323.364 222.734L325.306 222.671L325.373 224.715L325.543 224.71C325.793 224.002 326.216 223.446 326.811 223.04C327.406 222.628 328.129 222.409 328.981 222.381C329.844 222.353 330.569 222.525 331.155 222.899C331.747 223.266 332.216 223.794 332.562 224.481L332.699 224.477C333.012 223.79 333.497 223.237 334.154 222.818C334.811 222.393 335.608 222.165 336.545 222.135C337.715 222.097 338.684 222.432 339.451 223.141C340.219 223.843 340.628 224.964 340.678 226.503L340.962 235.26L338.952 235.325L338.667 226.568C338.636 225.603 338.35 224.922 337.808 224.524C337.266 224.127 336.638 223.94 335.922 223.963C335.002 223.993 334.299 224.294 333.811 224.867C333.324 225.435 333.094 226.141 333.121 226.987L333.398 235.506L331.354 235.572L331.062 226.611C331.038 225.867 330.777 225.276 330.28 224.837C329.782 224.393 329.153 224.183 328.392 224.208C327.87 224.225 327.386 224.38 326.941 224.673C326.501 224.966 326.15 225.364 325.888 225.867C325.631 226.364 325.513 226.933 325.534 227.575L325.8 235.753L323.79 235.818ZM345.624 240.02C345.283 240.031 344.978 240.012 344.709 239.964C344.441 239.922 344.255 239.877 344.151 239.829L344.604 238.041C345.097 238.15 345.53 238.181 345.903 238.135C346.277 238.089 346.604 237.91 346.884 237.6C347.169 237.295 347.424 236.806 347.646 236.134L347.988 235.1L342.722 222.105L344.903 222.034L348.853 232.343L348.99 232.338L352.262 221.795L354.443 221.724L349.376 236.896C349.149 237.58 348.857 238.15 348.503 238.605C348.148 239.065 347.73 239.411 347.249 239.643C346.773 239.875 346.231 240 345.624 240.02ZM367.233 234.406L362.821 221.451L364.933 221.383L368.087 231.308L368.223 231.304L370.692 221.196L372.838 221.126L375.923 231.02L376.059 231.015L378.562 220.94L380.675 220.871L377.114 234.085L375.137 234.149L371.949 224.191L371.744 224.197L369.209 234.342L367.233 234.406ZM388.637 233.983C387.456 234.021 386.41 233.774 385.5 233.241C384.596 232.707 383.878 231.943 383.345 230.949C382.818 229.954 382.533 228.781 382.489 227.429C382.445 226.066 382.653 224.869 383.114 223.836C383.581 222.803 384.248 221.991 385.116 221.401C385.989 220.809 387.016 220.495 388.197 220.456C389.379 220.418 390.421 220.665 391.325 221.199C392.235 221.732 392.954 222.499 393.481 223.499C394.014 224.499 394.302 225.681 394.346 227.044C394.39 228.396 394.179 229.585 393.712 230.612C393.251 231.639 392.584 232.448 391.71 233.039C390.843 233.63 389.818 233.945 388.637 233.983ZM388.578 232.177C389.476 232.148 390.206 231.894 390.771 231.415C391.335 230.936 391.744 230.318 391.998 229.559C392.252 228.8 392.365 227.984 392.336 227.109C392.308 226.235 392.142 225.424 391.839 224.678C391.536 223.932 391.088 223.335 390.494 222.889C389.899 222.442 389.153 222.233 388.256 222.262C387.359 222.291 386.628 222.548 386.064 223.032C385.5 223.517 385.091 224.141 384.837 224.906C384.584 225.67 384.471 226.489 384.499 227.364C384.528 228.239 384.693 229.046 384.996 229.787C385.299 230.527 385.747 231.118 386.341 231.559C386.935 232 387.681 232.206 388.578 232.177ZM397.626 233.418L397.2 220.334L399.142 220.271L399.207 222.247L399.343 222.243C399.56 221.588 399.975 221.048 400.587 220.625C401.198 220.201 401.896 219.977 402.679 219.951C402.827 219.947 403.012 219.943 403.233 219.942C403.455 219.94 403.623 219.943 403.737 219.951L403.803 221.995C403.735 221.981 403.578 221.96 403.332 221.934C403.092 221.902 402.839 221.89 402.572 221.899C401.936 221.92 401.373 222.072 400.882 222.355C400.396 222.632 400.016 223.008 399.741 223.483C399.472 223.953 399.348 224.482 399.367 225.073L399.636 233.353L397.626 233.418ZM408.269 228.297L408.155 225.811L408.563 225.797L414.098 219.785L416.586 219.704L410.687 226.069L410.517 226.075L408.269 228.297ZM406.551 233.128L405.984 215.683L407.994 215.617L408.561 233.063L406.551 233.128ZM414.864 232.858L409.543 226.55L410.929 225.107L417.42 232.775L414.864 232.858ZM421.068 232.793C420.648 232.806 420.282 232.667 419.971 232.376C419.661 232.085 419.498 231.729 419.485 231.309C419.471 230.889 419.61 230.523 419.901 230.213C420.192 229.902 420.548 229.74 420.968 229.726C421.388 229.712 421.754 229.851 422.065 230.142C422.375 230.434 422.538 230.789 422.551 231.209C422.56 231.488 422.498 231.746 422.363 231.983C422.235 232.22 422.056 232.414 421.828 232.563C421.605 232.707 421.352 232.783 421.068 232.793Z" fill="#39648E"/>
</g>
</g>
</g>
<defs>
<clipPath id="clip0_1_28">
<rect width="514.455" height="282.694" fill="white" transform="translate(49.3659) rotate(9.9184)"/>
</clipPath>
</defs>
</svg>
