<svg width="253" height="270" viewBox="0 0 253 270" fill="none" xmlns="http://www.w3.org/2000/svg">
<g id="Layer_1" clip-path="url(#clip0_12_1717)">
<g id="Clip path group">
<mask id="mask0_12_1717" style="mask-type:luminance" maskUnits="userSpaceOnUse" x="0" y="-1" width="253" height="271">
<g id="clippath">
<path id="Vector" d="M118.805 -0.0146708L0.000976562 87.6392L133.916 269.144L252.72 181.49L118.805 -0.0146708Z" fill="white"/>
</g>
</mask>
<g mask="url(#mask0_12_1717)">
<g id="Group">
<g id="Layer_1-2">
<path id="Vector_2" d="M77.6405 166.28L72.2305 185.56L77.5505 180.64C78.1205 179.72 78.6305 178.73 79.0705 177.65C81.4905 172.51 82.3105 167.56 82.6205 163.6C80.9105 164.49 79.2705 165.45 77.6405 166.28Z" fill="#DBDADA"/>
<path id="Vector_2_2" d="M102.8 181.02C43.1303 149.98 5.29028 104.58 18.1803 79.7803C18.5903 78.9803 18.9703 78.3304 19.4403 77.6104C9.76028 102.89 47.1503 146.51 105.04 176.63C162.98 206.83 220.12 212.52 235.24 190.06C234.97 190.88 234.65 191.62 234.18 192.33C221.34 217.21 162.4 212.1 102.81 181.01L102.8 181.02Z" fill="#E3E4E4"/>
<path id="Vector_3" d="M105.04 176.63C47.1502 146.51 9.76024 102.89 19.4402 77.6102C19.7702 76.8702 20.0902 76.1402 20.5002 75.3402C33.4002 50.5402 92.2802 55.5702 151.95 86.6002C211.63 117.63 249.47 163.04 236.57 187.83C236.24 188.57 235.78 189.28 235.31 190C220.19 212.46 162.97 206.83 105.03 176.63H105.04Z" fill="#F6F7F7"/>
<path id="Vector_4" d="M82.6202 163.6C82.6202 163.6 78.5802 178.51 77.5402 180.64L72.2202 185.56C72.2202 185.56 89.6102 192.12 114.61 181.38C108.27 178.35 103.09 175.71 99.1302 173.54C95.1702 171.37 92.0202 169.46 90.4502 168.51C87.3602 166.69 84.7602 165 82.6102 163.61L82.6202 163.6Z" fill="#F6F7F7"/>
<path id="About_Me" d="M86.1502 120.02L84.4702 119.24L95.4302 108.29L97.0802 109.05L95.8102 124.49L94.1302 123.71L95.3302 110.77L95.2302 110.72L86.1402 120L86.1502 120.02ZM89.1602 115.15L95.9102 118.28L95.2502 119.7L88.5002 116.57L89.1602 115.15ZM97.8702 125.45L103.99 112.25L105.51 112.95L103.25 117.82L103.38 117.88C103.57 117.76 103.83 117.61 104.15 117.44C104.48 117.26 104.88 117.16 105.35 117.12C105.83 117.08 106.39 117.21 107.03 117.51C107.86 117.9 108.5 118.45 108.94 119.16C109.38 119.87 109.61 120.69 109.61 121.62C109.61 122.55 109.37 123.53 108.89 124.57C108.4 125.62 107.8 126.44 107.09 127.05C106.38 127.65 105.61 128.01 104.78 128.14C103.96 128.26 103.13 128.14 102.31 127.75C101.67 127.46 101.21 127.11 100.93 126.73C100.65 126.34 100.47 125.96 100.38 125.59C100.3 125.22 100.25 124.92 100.22 124.69L100.04 124.61L99.3402 126.13L97.8702 125.45ZM101.66 121.19C101.31 121.94 101.12 122.65 101.07 123.32C101.03 123.99 101.14 124.58 101.41 125.1C101.68 125.61 102.13 126.01 102.74 126.29C103.38 126.58 103.98 126.66 104.56 126.53C105.15 126.39 105.68 126.08 106.16 125.61C106.65 125.14 107.05 124.55 107.38 123.84C107.7 123.14 107.89 122.47 107.93 121.81C107.98 121.15 107.87 120.56 107.59 120.03C107.32 119.5 106.86 119.09 106.22 118.79C105.6 118.5 105.01 118.42 104.44 118.54C103.88 118.65 103.36 118.94 102.88 119.4C102.41 119.85 102 120.45 101.66 121.19ZM112.86 132.64C111.97 132.23 111.28 131.65 110.8 130.91C110.33 130.17 110.08 129.34 110.05 128.4C110.03 127.46 110.26 126.48 110.73 125.46C111.21 124.43 111.81 123.62 112.54 123.02C113.27 122.43 114.08 122.07 114.94 121.96C115.81 121.85 116.69 122 117.59 122.41C118.48 122.82 119.17 123.4 119.64 124.13C120.12 124.87 120.36 125.71 120.38 126.65C120.4 127.59 120.17 128.58 119.7 129.61C119.23 130.63 118.62 131.44 117.89 132.03C117.16 132.62 116.36 132.97 115.49 133.09C114.62 133.21 113.74 133.06 112.85 132.64H112.86ZM113.49 131.27C114.17 131.58 114.81 131.67 115.41 131.52C116.01 131.38 116.55 131.07 117.02 130.6C117.49 130.13 117.88 129.56 118.19 128.9C118.5 128.24 118.68 127.57 118.73 126.9C118.78 126.23 118.67 125.62 118.4 125.06C118.13 124.5 117.65 124.07 116.97 123.76C116.29 123.45 115.65 123.36 115.05 123.51C114.45 123.66 113.91 123.97 113.43 124.44C112.95 124.91 112.56 125.48 112.26 126.14C111.95 126.8 111.77 127.46 111.72 128.13C111.67 128.8 111.78 129.4 112.06 129.95C112.34 130.5 112.81 130.93 113.49 131.25V131.27ZM127.87 134.43L130.58 128.58L132.1 129.28L127.51 139.18L125.99 138.48L126.77 136.8L126.67 136.75C126.21 137.15 125.65 137.4 124.99 137.53C124.34 137.65 123.64 137.53 122.89 137.19C122.27 136.9 121.78 136.51 121.43 136.02C121.08 135.52 120.89 134.93 120.87 134.26C120.85 133.58 121.04 132.82 121.43 131.97L124.34 125.68L125.86 126.38L122.99 132.57C122.66 133.29 122.59 133.96 122.8 134.58C123.01 135.2 123.43 135.65 124.06 135.95C124.44 136.13 124.87 136.21 125.35 136.2C125.83 136.19 126.3 136.05 126.75 135.77C127.21 135.5 127.58 135.05 127.86 134.43H127.87ZM139.19 132.57L138.59 133.86L133.46 131.48L134.06 130.19L139.19 132.57ZM136.65 128.51L138.17 129.21L133.8 138.64C133.6 139.07 133.51 139.42 133.54 139.69C133.57 139.96 133.67 140.18 133.83 140.34C134 140.5 134.2 140.64 134.42 140.74C134.59 140.82 134.73 140.87 134.84 140.91C134.96 140.94 135.05 140.96 135.12 140.98L134.8 142.49C134.68 142.49 134.52 142.45 134.31 142.41C134.11 142.37 133.86 142.28 133.58 142.15C133.15 141.95 132.77 141.66 132.45 141.29C132.13 140.92 131.92 140.48 131.82 139.97C131.73 139.47 131.82 138.93 132.08 138.35L136.64 128.5L136.65 128.51ZM148.31 132.79L150.22 133.67L149.63 146.7L149.78 146.77L159.34 137.89L161.25 138.77L155.13 151.97L153.64 151.28L158.29 141.25L158.16 141.19L149.39 149.31L147.95 148.64L148.47 136.7L148.34 136.64L143.69 146.67L142.2 145.98L148.32 132.78L148.31 132.79ZM162.19 155.5C161.24 155.06 160.51 154.47 160.01 153.72C159.52 152.98 159.26 152.14 159.24 151.2C159.22 150.26 159.45 149.29 159.92 148.28C160.39 147.27 160.99 146.46 161.72 145.86C162.45 145.26 163.25 144.89 164.12 144.77C164.99 144.64 165.88 144.79 166.77 145.2C167.29 145.44 167.75 145.76 168.18 146.17C168.6 146.57 168.93 147.07 169.16 147.64C169.4 148.21 169.49 148.87 169.44 149.62C169.39 150.36 169.15 151.2 168.73 152.12L168.43 152.76L160.8 149.22L161.41 147.91L167.49 150.73C167.75 150.17 167.87 149.62 167.85 149.08C167.83 148.54 167.68 148.05 167.39 147.61C167.1 147.17 166.69 146.82 166.14 146.57C165.53 146.29 164.94 146.2 164.36 146.29C163.78 146.38 163.27 146.61 162.81 146.98C162.35 147.35 162 147.8 161.75 148.35L161.34 149.23C160.99 149.98 160.83 150.67 160.85 151.31C160.87 151.95 161.05 152.51 161.39 152.99C161.73 153.47 162.21 153.85 162.82 154.14C163.22 154.33 163.61 154.44 163.98 154.47C164.36 154.51 164.72 154.47 165.06 154.35C165.4 154.23 165.72 154.02 166.01 153.74L167.29 154.83C166.9 155.26 166.44 155.57 165.9 155.78C165.36 155.98 164.77 156.07 164.14 156.03C163.51 155.99 162.86 155.81 162.19 155.5Z" fill="black"/>
</g>
</g>
</g>
</g>
</g>
<defs>
<clipPath id="clip0_12_1717">
<rect width="252.71" height="269.16" fill="white"/>
</clipPath>
</defs>
</svg>
